<?xml version="1.0" encoding="UTF-8"?>
<svg id="Layer_1" xmlns="http://www.w3.org/2000/svg" version="1.1" xmlns:xlink="http://www.w3.org/1999/xlink" viewBox="0 0 597.47 429.39">
  <!-- Generator: Adobe Illustrator 30.4.0, SVG Export Plug-In . SVG Version: 2.1.4 Build 226)  -->
  <defs>
    <style>
      .st0 {
        isolation: isolate;
      }

      .st1, .st2 {
        fill: #e1e3e6;
      }

      .st3 {
        fill: #18191e;
      }

      .st4 {
        fill: #333;
      }

      .st5 {
        fill: #171b20;
      }

      .st6, .st7 {
        fill: #717374;
      }

      .st7, .st8, .st2 {
        fill-rule: evenodd;
      }

      .st9 {
        fill: #ebedef;
      }

      .st10 {
        display: none;
        fill: none;
        stroke: #717374;
        stroke-linecap: square;
      }

      .st11 {
        fill: url(#linear-gradient);
      }
    </style>
    <linearGradient id="linear-gradient" x1="-848.24" y1="847.98" x2="-847.96" y2="847.98" gradientTransform="translate(261153.5539 -257525.2126) rotate(-90) scale(303.8655 -307.6195)" gradientUnits="userSpaceOnUse">
      <stop offset="0" stop-color="#343433"/>
      <stop offset=".18" stop-color="#343433"/>
      <stop offset=".48" stop-color="#294596"/>
      <stop offset=".81" stop-color="#2750a0"/>
      <stop offset=".94" stop-color="#294596"/>
      <stop offset="1" stop-color="#294596"/>
    </linearGradient>
  </defs>
  <g class="st0">
    <g id="svg9672">
      <g id="Triggers">
        <g id="R2">
          <path id="path1865-5" class="st5" d="M405.69,123.22c.16-.26.41,2.97.43,2.67.13-1.89.56-3.79.72-5.43.1-.95.65-3.77,1.21-5.62.43-1.44.64-2.68,1.06-3.43.27-.49.75-.81.75-.81,0,0,.32-.25,1.05-.51.53-.19,1.4-.34,2.36-.51,2.75-.51,7.14-.81,11.7-.82,5.37-.01,11.41.66,16.58,1.55,2.47.42,4.83.96,6.64,1.37,0,0,5.8,1.59,8.27,2.72l5.05,2.31s2.52,1.99,2.46,1.25c-.04-.02.25.48.17.34-.8-4.39-1.45-6.37-2.33-7.81-4.87-8.05-13.76-26.37-32.81-26.48-8.98-.05-16.18,4.97-18.77,8.91-.55.84-1.19,1.89-1.6,3.08-.3.87-.42,1.84-.56,2.7-.74,4.5-1.25,9.63-1.46,10.63"/>
          <path id="path1483-9" class="st6" d="M428.79,83.46h0c-6.32.06-11.31,2.2-14.84,4.89-3.56,2.72-5.65,5.99-6.12,8.26h0c-.95,4.71-1.96,15.33-2.4,21.84v.02s.11,3.27.04,4.72v.1c.06,1.4.16,2.65.27,3.76l.02.19.62-.03v-.18c.07-1.58.6-5.25,1.17-9.09l1.66-6.06c.22-.66.69-1.11,1.45-1.44h0s.04,0,.06-.01c.02,0,.03-.01.03-.01h0c.06-.01.07-.01.13-.03h.06s.14-.05.14-.05v-.04c.1-.04.19-.08.29-.1,3.16-.8,7.94-1.22,13.48-1.12h.2c12.28.12,28.17,2.62,38.85,9.45h.01l.06.03c.14.08.2.11.33.18l.34.2-.04-.39c-.3-2.68-.97-6.08-2.31-8.34h0c-.41-.67-.86-1.41-1.32-2.2h0c-2.54-4.27-6.18-10.4-11.36-15.47-5.17-5.07-11.91-9.08-20.61-9.08h-.21ZM428.99,84.32h0c7.31,0,14.02,2.94,19.98,8.77,5.05,4.94,8.62,10.95,11.24,15.36h0c.48.8.91,1.54,1.33,2.2.2.33.37.75.55,1.15-3.53-2.07-11.42-4.56-20.79-6.19-9.84-1.7-21.21-2.42-30.58-.51h-.03c-.35.14-.84.18-1.12-.01h0c-.21-.14-.32-.4-.3-.87h0c.12-1.82.19-3.79.03-5.67h0c-.18-2.36.32-4.17,1.71-6.03h0c2.97-3.79,8.81-8.19,17.99-8.19h0ZM408.68,96.85c-.04.56-.07,1.13-.01,1.74h0c.22,2.77-.03,5.77-.24,8.2-.05.41-.06.78-.1,1.12h0c-.11,1.44-.61,4.72-1.13,8.2-.41,2.71-.79,5.28-1.07,7.45,0-.1-.01-.19-.02-.3h0c-.03-.49.03-2,.16-4.05s.33-4.67.58-7.43c.49-5.5,1.17-11.56,1.83-14.93h0ZM422.91,104.58h.8c8.27.04,16.86,1.3,23.94,2.95,7.04,1.64,12.6,3.68,14.84,5.25.41,1.18.79,2.77,1.19,4.89-7.85-4.82-18.23-7.43-27.99-8.54-9.91-1.13-19.17-.73-24.46.47h0c-1.38.37-2.25,1.04-2.61,2.11h0l-.25.92c.29-1.97.53-3.73.6-4.67h0c.03-.34.06-.72.1-1.11h0c.04-.41.07-.85.11-1.29.02.01.02.03.04.04.32.22.7.26,1,.24.29-.02.53-.1.65-.14,3.51-.71,7.33-1.05,11.24-1.11h.8Z"/>
          <path id="path1905-2" class="st6" d="M422.4,98.71h-.17c-.88.02-1.57.1-2.12.31l.46.17c.68-.2,1.22-.21,1.71-.23.66-.02,1.2.09,1.23.31.02.22-.25.4-1.09.68,0,0-1.68.54-2.17.7v.24s4.39-.11,4.43-.11l-.02-.24-3.27.09,1.79-.57c.6-.2,1.31-.43,1.28-.85-.03-.4-1.19-.52-2.06-.51h0ZM417.5,99.13c-.27,0-.61.02-1.02.06l-2.38.24.17,2.1.95-.1-.03-.91,1.09-.11c.4-.04.91-.09,1.18.07l.67.65,1.01-.11-.85-.72c-.17-.11-.58-.17-.83-.15.59-.11,1.21-.33,1.18-.63-.02-.22-.3-.38-1.13-.38h-.01ZM417.01,99.4c.44-.01.66.05.69.24.04.29-.76.43-1.37.51l-1.21.12-.06-.7,1.2-.12c.3-.03.55-.05.75-.05h0Z"/>
        </g>
        <g id="L2">
          <path id="path1863-4" class="st5" d="M133.43,118.1c.4-1.84,1.06-5.37,2.18-7.34,4.84-8.06,14.39-26.81,32.88-26.81,13.59,0,20.47,10.16,20.8,12.92,0,0,2.53,20.72,2.46,26.22-.1.99-.24,3.23-.35,3.24-.17.02-.23-1.46-.45-3.43-.24-2.16-.67-4.9-1.04-6.83-.26-1.32-.58-2.14-.8-2.77-.29-.83-.4-1.26-.4-1.26l-.85-1.03-.45-.47-.77-.2-.46-.2-2.98-.49c-1.38-.23-6.07-.74-10.63-.88-3.82-.11-7.54.12-9.16.19-1.97.08-3.61.39-5.13.6-4.15.57-17.09,4.69-16.73,4.77l-3.91,1.65-4.2,2.11"/>
          <path id="path1643-4" class="st6" d="M168.48,83.4c-8.74,0-15.52,4.11-20.75,9.31-5.22,5.2-8.91,11.48-11.48,15.86h0c-.4.69-.78,1.32-1.12,1.91h0c-1.06,1.85-1.69,4.87-2.11,6.84l-.26.99.12.08s.13.08.21.14l.1.07.11-.06c.1-.06.19-.11.29-.17h0c11.18-5.81,22.96-9.12,33.18-9.31.62-.01,1.22-.02,1.82-.02h1.78c4.09.05,7.76.31,10.6.62,2.84.3,4.86.65,5.61.87h0l.24.08c.36.12.69.26,1.12.93s.94,1.87,1.52,4.03c1.26,4.7,1.54,11.4,1.51,12.84v.18l.61.06.02-.19c.1-.85.16-1.72.23-2.62h0c.06-.76.12-1.54.2-2.34h0c.32-9.11-1.32-18.54-2.19-26.7h0c-.1-.84-.65-2.06-1.61-3.46s-2.34-2.97-4.14-4.44c-3.55-2.92-8.73-5.44-15.42-5.49h-.2s0-.01,0-.01ZM168.49,84.26c8.1,0,13.9,3.74,17.22,7.29v.02c.27.39.55.9.76,1.31.11.2.2.39.26.52.03.06.06.12.08.16s.02.05.03.06h0c.99,1.73,1.32,3.38,1,4.95h0l-.03.15c-.24,1.2-.59,2.89-.68,4.62-.02.25-.09.37-.18.44h0c-.17.14-.61.14-1.03.08h0c-17.26-2.27-35.84.36-48.54,6.89l-.51.26h0c-.4.21-.89.46-1.34.69.12-.27.23-.56.36-.78h0c.36-.59.73-1.22,1.13-1.91h0c2.54-4.34,6.18-10.53,11.29-15.64,5.12-5.1,11.7-9.11,20.18-9.11h0ZM188.08,94.7c.52.91.84,1.7.91,2.2,0,.03.14,1.19.35,2.98s.48,4.24.77,6.89c.57,5.31,1.17,11.46,1.3,14.89,0,.25,0,.5.03.76v-.02.66c-.02.22-.03.43-.05.64-.22-2.58-.61-5.71-1.31-8.3h0c-.42-1.57-.8-2.63-1.17-3.41-.06-1.38-.37-3.27-.91-5.62h0c-.56-2.4.08-5.61.47-7.53h0l.03-.15h0c.26-1.3.11-2.64-.41-4h-.01ZM173.66,103.68c4.07,0,8.16.27,12.18.79.42.07.91.11,1.31-.09,0,.73.06,1.46.22,2.14h0c.39,1.66.63,3.06.77,4.24-.46-.53-.91-.69-1.28-.79-.87-.27-3.36-.69-6.92-1.03s-8.16-.59-13.18-.5c-10.16.19-21.81,3.43-32.89,9.1h0c.31-1.42.72-3.35,1.28-4.95.32-.16,1.34-.69,2.01-1.03l.5-.25h0c9.41-4.84,22.16-7.54,35.17-7.63h.83ZM187.34,104.27h0Z"/>
          <path id="path1913-2" class="st6" d="M174.51,98.66l-.34,2.34h3.85l.03-.27h-2.88l.29-2.07h-.96.01ZM180.46,98.92c-.33,0-.69.04-1.13.11l.41.24c1.38-.22,2.88.11,2.79.44-.07.47-1.42.67-3.49,1.06l-.03.24,4.26.46.03-.25-3.1-.32c.5-.13,3.18-.42,3.26-1.06.07-.58-1.32-.79-1.96-.86-.34-.04-.67-.07-1.04-.06h0Z"/>
        </g>
      </g>
      <path id="path1855-7" class="st9" d="M135.77,313.91s2.36-3.12,6.06-8.33c4.93-6.92,12.32-17.4,20.36-27.88,10.38-13.53,21.83-27.37,29.41-34.5,5.29-4.97,19.8-20.4,19.8-20.4,0,0,2.11-2.21,3.52-5.36.68-1.53,1.26-3.46,1.57-5.46.22-1.41.42-3.01.49-4.25.05-.9-.18-1.85-.04-2.55.25-1.18-.12-1.94-.11-2.24-.28-2.15,1,2.2,1.57,4.07,0,0,1.79,5,5.83,9.59,2.44,2.76,5.78,5.28,9.8,6.74,6.74,3.02,12.53,1.73,20.58,2.05,10.07.15,20.23.09,26.41.12,17.24.08,32.67-.13,39.07.1,3.97.14,9.97-.03,15.59.02,6.72.06,13.57.17,18.81-.25,2.34-.18,4.38-.68,5.92-.97.72-.07,1.6-.48,2.6-.8,1.48-.48,3.06-1.13,3.93-1.62,3.88-2.19,3.95-2.54,6.68-5.51,3.14-3.42,5.13-8.26,6.82-13.27.03,1.51-.2,3.13-.15,4.53.06,1.73.34,3.38.77,4.88,2.89,10.19,8.4,13.33,15.1,20.49,2.58,2.76,6.7,6.67,9.74,10.14,1.16,1.32,3.21,3.23,4.02,4.05.32.32.62.69.92,1.03.62.69,1.23,1.37,1.86,2.02,2.24,2.35,4.14,4.44,4.5,5.06,1.5,2.05,3.64,4.18,5.19,6.02,3.37,4.01,6.78,8.65,8.57,10.9,1.98,2.54,4.72,6.16,8.73,11.43.7,1.19,1.54,2.12,2.34,3.24,1.52,2.12,3.1,4.38,4.84,6.65,1.84,2.41,3.74,5.29,5.63,7.76,2.64,3.44,5.29,7.37,7.48,10.34,1.95,2.64,3.6,5.17,5.2,6.87,2.15,2.28,3.24,3.3,3.31,3.33,1.79.79,2.68,1.68,5.96.79,12.83-4.33,25.54-15.04,30.92-26.36,6.56-14.74,9.35-32.35,8.64-50.34-.99-23.8-9.96-51.23-18.98-72.47-8.96-21.05-20.48-46.13-22.37-47.89-.48-.35-.9-.92-1.3-1.19-1.46-.99-2.52-1.11-3.1-1.19-.51-.07-.62-.18-.67.13.4,1.82.64,3.7,1,5.62.11.61.17,2.18.48,3.2.18.57.36,3.34.36,3.34.04.92.22,1.93.28,2.83.03.46.09.88-.04,1.25-.02.48-.58.86-.97,1.2-.25.22-1.44,1.01-1.67,1.13-1.36.73-1.37.95-2.59,1.41-9.34,3.56-16.92.55-50.32-3.15-.5-.06-.62-.44-1.03-.77-.8-.65-1.79-1.5-2.46-2.02-3.08-2.37-4.16-6.41-4.57-9.84-.2-1.67-.38-3.31-.27-4.41.05-2.76.05-3.57-1.05-6.01-29.76-2.71-65.15-4.3-105.45-4.3s-82.45,1.45-106.57,4.26c-.19.69-.49,1.55-.72,2.48l-.1.27c-.11.85-.14,1.61-.17,2.87-.1,4.3-.54,10.53-4.42,14.39-.53.53-1.12,1.08-1.76,1.56-.34.25-.67.5-1.07.7-.56.27-.81.71-1.46.88-.41.11-1.63.31-2.64.42-2.19.24-4.92.46-6.6.67-5.25.63-8.69,1.02-12.42,1.69-9.89,1.37-16.65,1.98-21.59,1.64-3.75-.26-6.53-1.25-8.3-1.9-.39-.15-1.27-.74-1.99-1.4-.54-.49-1-1-1.29-1.21-.06-.04-.09-.09-.14-.1,0,0-.03-.04-.04-.06-.15-.13-.05-.8.08-1.84.21-1.84.25-5.46,1.68-13.76l.25-1.26c-1.98.4-4.46.4-6.75,5.02-17.6,36.89-40.08,83.88-40.08,121.45,0,19.72,3.32,38.25,12.23,51.92,6.42,9.85,15.94,16.99,28.34,21.14,1.23.49,2.77.82,4.33-.17,1.68-1.06,3.38-3.48,3.9-3.79"/>
      <path id="path1859-9" class="st3" d="M465.13,318.64c-4.57-5.93-19.88-27.8-33.4-45.37-12.33-16.64-25.06-29.56-44.54-49.3-3.38-4.33-8.95-11.87-6.16-23.07-3.78,13.76-10.24,24.29-29.83,24.59-19.58.29-105.87-.2-105.87-.2-21.87,0-27.53-18.09-28.68-24.38.81,6.99.67,15.05-4.7,21.24-6.85,7.89-24.13,22.54-45.59,50.34-14.82,17.7-32.81,46.6-37.62,49.54,16.48-2.49,22.16-8.23,24.53-10.7,6.48-6.74,21.04-25.87,26.45-31.27,3.27-3.05,9.03-6.3,16.1-5.8,13.78,18.21,43.78,14.55,49.6,11.38,3.42-1.02,8.18-3.6,13.63-8.14l79.42-.09c3.72,3.35,8.09,6.19,13.2,7.92,11.46,3.88,27.58,3.42,37.41-1.48h.02c4.93-2.16,9.45-6.12,12.48-9.59,3.48-.4,12.63,1.47,16.41,5.7,11.32,12.39,25.11,32.72,32.01,35.8,4.47,2.36,13.72,6.59,18.49,6.19-.89-.78-2.29-2.16-3.38-3.3"/>
      <g id="Light_Bar">
        <path id="path547-7" class="st11" d="M210.84,140.64c-3.11,2.99-6.98,9.37-5.87,14.66h0l11.66,45.71c1.15,6.04,6.79,24.37,28.68,24.37h0s86.27.48,105.87.19h0c19.61-.28,26.04-11.34,29.83-24.58h0l11.36-45.04c1.71-6.96-2.2-11.96-5.47-14.74h-.03c2.37,3.76,3.03,8.62,1.63,14.24h0l-13.12,50.26c-2.25,7.31-10.45,15.48-24.52,15.6h0c-14.06.13-106.7-.13-106.7-.13h0s-17.36.52-22.27-15.87h0l-12.9-49.49c-1.37-6.28-.53-11.48,1.89-15.19h-.04Z"/>
      </g>
      <path id="path14160" class="st7" d="M369.35,232.64c-4.94,0-9.61.89-13.82,2.47-3.69,1.39-7.03,3.31-9.89,5.68-3.74,3.11-6.61,6.89-8.27,11.19-1.05,2.71-1.61,5.61-1.61,8.62,0,7.78,3.89,14.66,9.98,19.73s13.4,7.62,22.67,7.62,18.45-2.36,24.56-7.45c1.13-.94,2.21-1.92,3.19-2.98,1.25-1.35,2.36-2.82,3.32-4.36,2.31-3.75,3.64-8.02,3.64-12.51,0-2.77-.48-5.44-1.36-7.95-1.59-4.54-4.5-8.58-8.44-11.84-1.93-1.59-4.08-2.99-6.42-4.16-5.15-2.59-11.18-4.07-17.56-4.07h0ZM369.38,233.3c6.3,0,12.23,1.44,17.26,3.99,2.25,1.14,4.32,2.52,6.16,4.05,3.85,3.2,6.74,7.15,8.29,11.59.85,2.44,1.29,5.04,1.29,7.71,0,4.35-1.3,8.48-3.55,12.11-.93,1.5-2.01,2.94-3.24,4.25-.95,1.02-1.98,1.96-3.08,2.87-5.95,4.95-14.96,7.32-24.09,7.32s-16.3-2.45-22.27-7.41-9.69-11.67-9.69-19.19c0-2.93.54-5.74,1.57-8.37,1.62-4.13,4.38-7.85,8.02-10.88,2.79-2.32,6.09-4.22,9.73-5.6,4.14-1.56,8.74-2.45,13.59-2.45h0ZM369.31,236.66c-7.93,0-15.08,2.54-20.3,6.75s-8.49,10.05-8.49,16.53,3.36,12.1,8.58,16.31,12.34,6.9,20.27,6.9,14.95-2.43,20.17-6.65c5.22-4.21,8.62-10.05,8.62-16.53s-3.17-12.24-8.39-16.45c-5.22-4.22-12.52-6.86-20.45-6.86h0ZM369.31,237.34c7.79,0,14.82,2.56,19.91,6.68,5.09,4.11,8.19,9.7,8.19,15.93s-3.3,11.81-8.39,15.92c-5.09,4.11-11.85,6.59-19.64,6.59s-14.8-2.62-19.89-6.73c-5.09-4.11-8.26-9.56-8.26-15.8s3.1-11.83,8.18-15.95c5.09-4.11,12.11-6.66,19.9-6.66h0v.02ZM369.35,238.93c-7.33,0-13.99,2.39-18.81,6.25s-7.8,9.23-7.8,15.17c0,2.15.39,4.21,1.13,6.15,1.29,3.4,3.62,6.42,6.69,8.88,4.82,3.86,11.46,6.24,18.79,6.24s13.97-2.25,18.79-6.11c3.32-2.66,5.74-5.96,6.94-9.69.55-1.68.88-3.43.88-5.28,0-1.97-.32-3.97-.93-5.81-1.24-3.69-3.64-6.94-6.86-9.52-4.82-3.86-11.49-6.27-18.82-6.27h0ZM369.35,239.72c7.19,0,13.69,2.3,18.39,6.06,3.18,2.55,5.47,5.67,6.62,9.22.55,1.68.86,3.49.86,5.33s-.3,3.43-.81,5.06c-1.13,3.67-3.54,6.98-6.79,9.58-4.7,3.76-11.08,6.01-18.27,6.01s-13.69-2.46-18.39-6.22c-3.01-2.41-5.25-5.27-6.48-8.56-.69-1.86-1.07-3.81-1.07-5.87,0-5.71,2.86-10.84,7.56-14.6,4.69-3.76,11.19-6.01,18.39-6.01h0Z"/>
      <path id="path14149" class="st7" d="M228.21,232.04c-4.95,0-9.67.94-13.89,2.54-3.7,1.41-7.1,3.37-9.95,5.78-3.74,3.16-6.57,6.94-8.24,11.3-1.05,2.76-1.58,5.73-1.58,8.78,0,7.9,3.85,14.75,9.95,19.9,6.11,5.15,13.59,7.41,22.87,7.41s18.28-2.02,24.4-7.18c1.13-.95,2.19-1.88,3.18-2.95,1.26-1.37,2.41-2.88,3.37-4.44,2.31-3.8,3.75-8.12,3.75-12.68,0-2.81-.48-5.52-1.36-8.07-1.59-4.61-4.51-8.71-8.45-12.02-1.93-1.61-4.09-3.03-6.42-4.22-5.16-2.62-11.23-4.14-17.62-4.14h0ZM228.21,232.68c6.31,0,12.3,1.5,17.33,4.09,2.25,1.16,4.32,2.56,6.17,4.12,3.85,3.25,6.75,7.26,8.3,11.77.86,2.48,1.3,5.12,1.3,7.83,0,4.42-1.3,8.64-3.56,12.34-.93,1.52-2.01,2.94-3.24,4.28-.95,1.03-2.06,2.03-3.16,2.96-5.95,5.02-14.83,6.94-23.99,6.94s-16.52-2.17-22.49-7.2c-5.97-5.04-9.68-11.73-9.68-19.37,0-2.97.53-5.86,1.56-8.53,1.62-4.2,4.4-7.97,8.04-11.05,2.8-2.36,6.09-4.28,9.75-5.68,4.15-1.59,8.8-2.48,13.66-2.48h0v-.02ZM227.72,236.48c-7.67.09-14.63,2.74-19.65,7.12-.29.25-.58.5-.87.77-.55.51-1.08,1.05-1.58,1.6-.8.88-1.51,1.79-2.17,2.75-2.48,3.62-3.94,7.81-3.85,12.29.13,6.89,3.5,12.26,8.66,16.49,5.31,4.35,12.35,7.28,20.31,7.28s14.93-2.53,20.15-7c2.84-2.43,5.05-5.24,6.53-8.19.65-1.31,1.14-2.69,1.5-4.13.34-1.39.55-2.86.55-4.39,0-6.83-3.32-12.84-8.57-17.27-5.26-4.44-12.44-7.24-20.27-7.32h-.74,0ZM227.79,237.11h.73c7.75.13,14.54,2.8,19.77,7.14,5.16,4.28,8.36,10.21,8.36,16.79,0,1.48-.2,2.9-.53,4.25-.34,1.41-.83,2.73-1.46,4.01-1.57,3.2-3.64,5.5-6.39,7.81-5.13,4.32-11.89,6.96-19.7,6.96s-14.84-2.76-19.95-7.11c-5.2-4.43-8.34-9.46-8.37-15.97h0c-.02-4.34,1.35-8.39,3.73-11.91,1.24-1.83,2.72-3.51,4.46-4.99,4.94-4.21,11.77-6.95,19.34-6.99h0ZM228.44,238.71c-7.31,0-13.81,2.54-18.62,6.64-3.65,3.11-6.26,7.16-7.31,11.67-.34,1.44-.53,2.91-.53,4.43,0,2.27.27,4.38,1,6.44,1.29,3.62,3.79,6.13,6.84,8.74,4.81,4.1,11.43,6.63,18.75,6.63s14.79-3.06,19.6-7.17c3.3-2.82,4.85-5.03,6.05-8.96.55-1.79.76-3.67.76-5.62,0-2.09-.38-4.16-.99-6.11-1.23-3.91-3.65-7.28-6.86-10.02-4.81-4.1-11.36-6.66-18.67-6.66h-.02ZM228.45,239.37c7.17,0,13.51,2.53,18.2,6.53,3.18,2.71,5.47,5.94,6.63,9.71.55,1.8,1.05,3.94,1.05,5.88s-.24,3.72-.74,5.45c-1.13,3.91-2.69,5.84-5.95,8.62-4.68,4-11.92,7.06-19.08,7.06s-13.65-2.61-18.34-6.61c-3.01-2.57-5.4-4.92-6.63-8.41-.69-1.97-1-3.96-.98-6.14.05-6,2.96-11.6,7.64-15.6s11.03-6.49,18.2-6.49h0Z"/>
      <g id="g14144">
        <g id="R1">
          <path id="path34635-4" class="st5" d="M414.13,140.32c14.02.99,32.91,4.82,41.55,4.73,5.93-.2,10.97-1.71,14.09-5.25-.33-6.1-2.12-18.48-3.51-20.06,0,0-.79-.72-2.11-1.44-3.08-1.87-11.23-5.96-21.56-7.87-7.7-1.42-15.97-1.78-22.5-1.54-4.93.43-8.85.34-10.62,1.98-.93.86-1.12,3.09-1.89,6.3-1,3.72-1.21,6.9-1.41,9.93.06,2.37.78,4.54,1.45,6.44.16.46.64.82.88,1.29,1.07,2.09,3.48,3.41,5.64,5.49"/>
          <path id="path12701" class="st6" d="M424.18,108.45c-.83,0-1.64.01-2.43.03-4.22.11-7.86.52-10.51,1.12h0c-1.38.37-2.25,1.04-2.61,2.11h0l-1.4,4.39v.02c-.42,2.71-.79,5.28-1.07,7.45,0-.05-.02-.29-.02-.29,0-.01.03-.89.01-1.74l-.39-.03-.25,1.77v.02c.06,1.4.16,2.66.27,3.77h0l.02.18c.36,3.49.98,5.71,2.19,7.59,1.21,1.87,2.98,3.38,5.62,5.48l.04.03.27.04.93.1-.54-.43c-2.73-2.16-4.53-3.66-5.73-5.49-1.19-1.82-1.82-3.99-2.17-7.53.06-1.58.59-5.24,1.16-9.08l1.66-6.06c.2-.59.6-1.01,1.23-1.33-.06,3.03-.04,6.18.41,8.92.47,2.83,1.4,5.25,3.23,6.6,3.76,2.77,5.84,3.37,13.65,4.91,3.11.61,17.65,3.39,25.44,3.39.83,0,1.57-.03,2.23-.1,4.01-.43,9.5-1.9,11.84-4.85h0c.37-.46.6-.96.78-1.47.65,3.93,1.21,8.56,1.4,11.78l.02.4.3-.27c.12-.1.15-.21.2-.32.05-.11.09-.2.09-.2l.02-.04v-.04c-.12-1.82-.37-4.21-.69-6.67v-.02c-.03-.18-.05-.35-.07-.53h0c-.08-.62-.17-1.25-.27-1.87h0c-.1-.66-.22-1.53-.36-2.36-.12-.73-.24-1.43-.34-1.95-.05-.26-.09-.48-.12-.63-.01-.08-.03-.13-.03-.17v-.04s-.1.03-.19.06h0l.19-.07-.17-.87-.17-.74-.09-.38h0c-.23-.94-.39-1.71-.54-2.31s-.29-1.04-.53-1.32h-.01v-.02c-.84-.7-2.48-1.53-2.5-1.54-10.36-6.52-25.37-9.05-37.45-9.35-.85-.02-1.69-.03-2.52-.03h-.04v-.02ZM424.03,109.08h1.02c12.28.12,28.17,2.63,38.85,9.45h.01l.05.03c1.26.69,2.02,1.37,2.04,1.39.2.23.5.94.79,1.94s.58,2.3.85,3.76c.21,1.23-.08,2.35-.9,3.39-2.14,2.68-7.49,4.19-11.41,4.61-3.3.34-9.33-.3-14.95-1.12-5.61-.82-10.82-1.82-12.53-2.16-7.75-1.52-9.7-2.08-13.38-4.79h0c-1.67-1.23-2.57-3.51-3.01-6.29-.44-2.74-.44-5.93-.38-8.99.1-.04.19-.08.29-.1,3.05-.69,7.5-1.12,12.64-1.12h.02Z"/>
          <path id="path1909-2" class="st6" d="M424.43,110.72l-1.07.11-1.95.72.47.29,1.5-.56.15,2.78,1.07-.11-.17-3.24h0ZM418.66,111.29c-.26,0-.56.01-.9.05l-1.23.12h0l-1.07.1.17,3.24,1.07-.1-.06-1.41,1.05-.1c.85-.08,1.15.07,1.32.29l.62.96,1.04-.1-.78-1.07c-.24-.32-.58-.39-.93-.4.62-.15,1.26-.4,1.23-.88-.02-.39-.4-.69-1.52-.69h-.01ZM418.24,111.68c.61,0,.94.14.96.4,0,.32-.28.59-1.41.7l-1.19.12-.06-1.08,1.23-.12c.17-.02.33-.03.47-.03h0Z"/>
        </g>
        <g id="L1">
          <path id="path40949-1" class="st5" d="M127.92,140c.01-.17.01-.34.03-.54.32-4.58,1.42-15.53,2.76-18.68.53-1.23,1.67-1.98,2.93-2.7,6.44-3.28,13.4-5.96,19.75-7.44,2.04-.47,4.37-1.04,6.58-1.34,3.64-.49,6.81-.55,6.81-.55,0,0,2.74,0,4.7.01,3.46.04,7.81.33,11.23.75,2.94.36,5.19.75,5.56,1.97,1.16,2.09,2.5,8.05,2.8,11.8,0,0,.32,3.32.2,5.08-.28,4.15-1.99,8.22-8.25,12-15.56,1.7-35.58,5.19-43.87,4.33-8.29-.85-9.94-3.54-11.2-4.72"/>
          <path id="path13178" class="st6" d="M168.62,108.42c-.61,0-1.23,0-1.86.02h0c-10.28.19-22.07,3.49-33.25,9.28h0c-2.42,1.39-3.39,2.78-3.93,5.16h0l-.08.48h0c-.74,5.25-1.49,10.85-1.85,16.27v.07l.57.85.04-.58c.16-2.47.65-7.7,1.3-12.15.23.94.64,1.8,1.27,2.55,2.49,2.98,7.09,3.34,8.44,3.39h0c1.16.02,2.31.03,3.43.03,10.95,0,20.03-1.22,26.9-2.85s11.51-3.65,13.61-5.32c2.03-1.61,3.01-4.04,3.48-6.53s.43-5.05.4-6.96h0v-1.4c.27.12.53.3.86.81.43.67.94,1.87,1.52,4.03,1.26,4.7,1.54,11.37,1.51,12.83-.57,4.35-1.85,7.85-8.1,11.7l.13.37.56-.06.04-.03c6.16-3.87,7.52-7.52,8.02-11.89h0v-.06h0c-.06-4.24-.51-9.16-1.53-13.02h0c-.43-1.59-.81-2.67-1.18-3.45h0l-.28-.52h0c-.64-1.11-1.26-1.33-1.75-1.47-.76-.24-2.76-.58-5.64-.9s-6.61-.58-10.79-.64c-.6,0-1.2-.01-1.81-.01h-.03ZM168.59,109.05h1.77c4.09.05,7.76.31,10.6.62,2.74.29,4.66.62,5.47.84v1.64h0c.03,1.89.06,4.39-.38,6.8-.45,2.4-1.38,4.7-3.25,6.18h0c-2.09,1.65-7.07,3.81-14.47,5.45s-17.23,2.81-29.07,2.54c-1.28-.04-5.69-.43-7.96-3.15h0c-1.24-1.47-1.64-3.39-1.18-5.74h0c.41-2.73,1.25-4.57,3.46-5.85h0c11.18-5.81,22.96-9.12,33.18-9.31.62-.01,1.22-.02,1.82-.02h.01Z"/>
          <path id="path1917-6" class="st6" d="M172.92,110.86l-.28,3.23,1,.04h0l2.96.1.03-.37-2.97-.11.24-2.86-.99-.03h0ZM179.49,111.15l-1.9.5.41.36,1.47-.39-.11,2.84,1.01.03.13-3.3-1.01-.03h0Z"/>
        </g>
      </g>
      <path id="path12679-4" class="st6" d="M299.3,112.38c-43.26,0-84.1,1.62-106.63,4.26h0l-.39.04-.03.14s-.2.83-.41,1.85-.42,2.22-.43,2.99h0c0,.25,0,.5.02.77v.64c-.09.88-.21,2.48-.27,3.26v-.02c-.12.72-.09,2.18-.09,2.18v.27l.51-.17v-.13c.15-1.39.26-2.85.38-4.18.45.88,1.21,1.69,2.42,2.35,4,2.19,8.38,4.02,19.05,4.02,2.17,0,4.6-.08,7.35-.25,4.47-.18,10.07-.51,16.56-.9,16.78-1,39.74-2.37,61.52-2.08h0c21.54-.27,47.95,1.23,65.42,2.22,8.67.49,15.5.88,19.1.92h0c3.18-.1,7.74-.23,11.94-.99,4.2-.76,8.06-2.13,9.82-4.78h0c.31-.47.54-.97.71-1.51h0v-.03c.04-.23.1-.53.13-.81.13-1.27.1-2.76-.17-4v-.03s-.39-.95-.59-1.42h0l-.13-.29-.32-.04h0c-31.21-2.85-66.7-4.28-105.5-4.28h.03ZM299.31,113.22h0c38.68,0,74.08,1.44,105.21,4.27,1.28,2.83,1.31,5.15.11,6.95h0c-1.61,2.43-5.33,3.79-9.46,4.52s-8.63.88-11.78.97c-3.56-.03-10.4-.42-19.07-.91-17.48-1-43.89-2.49-65.46-2.22-21.8-.29-44.78,1.08-61.56,2.08-6.49.39-12.08.72-16.55.9h0c-9.55.57-18.07.67-26.07-3.7h0c-1.89-1.03-2.52-2.38-2.62-3.82v-.46c0-1.29.41-2.62.75-3.71h0c.08-.23.14-.43.2-.62,22.51-2.62,63.21-4.25,106.32-4.25h-.02ZM130.02,122.68h-.1s-.4.07-.59.11h0c-.96.17-2.06.36-3.2,1.07s-2.3,1.94-3.38,4.13l-.12.25h0c-17.81,37.33-39.99,83.8-39.99,121.43,0,22.11,4.13,39.67,12.3,52.21,6.52,9.99,16.16,17.19,28.62,21.36h0c.73.29,1.46.44,2.15.44,1.39,0,2.38-.61,3.07-1.03l.17-.1c.92-.14,1.8-.3,2.66-.46v-.87c-.58.11-1.15.21-1.75.31.51-.46,1.11-1.08,1.75-1.81v-.96c-.18.21-.37.44-.54.63-1.04,1.19-1.9,2.02-2.48,2.37,0,0-.18.11-.27.17-.98.6-2.22,1.39-4.45.51h-.01c-12.29-4.12-21.76-11.19-28.18-21.01-8.07-12.38-12.17-29.79-12.17-51.76,0-36.37,20.92-81.21,38.44-117.96h0c-.44,1.46-.73,2.82-.97,4.24-.31,1.85.15,4.08,1.21,6h0c.93,1.65,2.77,3.94,6.27,5.35,6.3,2.53,12.36,2.4,21.31,1.26,4.62-.58,13.01-1.7,20.27-2.68,3.63-.49,6.98-.95,9.44-1.28,2.45-.33,3.99-.55,4.07-.56,3.3-.37,7.65.04,11.49,1.74,3.84,1.71,7.16,4.7,8.46,9.51h0l12.82,45.69c.1.86.19,1.78.26,2.73l.91-.41h0c-.27-.99-.44-1.82-.55-2.43v-.03l-11.48-45.17h0c-.81-2.72-.23-5.56.92-8.1.88-1.96,2.09-3.72,3.25-5.1h0c-1.72,3.82-1.99,8.48-.76,13.9h0l12.72,48.89h0v.04c2.57,8.91,8.58,12.83,13.16,14.53,2.48.92,4.83,1.31,6.56,1.47.86.08,1.58.1,2.07.11h.79c.36,0,15.27.04,33.91.08,18.65.04,41.04.08,56.38.08,7.7,0,13.62,0,16.4-.03,6.5-.06,12.33-1.81,16.88-5.06h0c3.89-2.78,6.71-6.61,7.95-10.76h0l13.12-49.7h0c1.21-5.01.93-9.54-.76-13.32,2.59,2.77,5.46,7.41,3.98,13.69l-11.34,44.45-.51,1.8.03.57.62.25c.12-.8.27-1.62.48-2.47l.02-.06c.11-.25.27-.71.55-1.63.29-.95.69-2.36,1.26-4.42,1.15-4.13,2.98-10.87,5.92-21.77h0c2.28-8.41,4.42-16.37,5.09-18.63h0c.71-2.57,2.98-5.55,5.92-7.71,3.51-2.58,7.64-3.78,11.62-3.4h0c9.2.9,37.41,4.49,40.91,4.97,1.88.25,4.87.32,8.1,0,.38-.04.76-.08,1.14-.13,1.95-.25,3.93-.64,5.8-1.26h0c.14-.05.29-.1.43-.15h0c.23-.08.46-.17.69-.25h0c.32-.13.64-.26.95-.4h0c.08-.04.15-.07.23-.11,1.29-.6,2.47-1.34,3.45-2.24h0c2.3-2.11,3.29-4.88,2.92-8.16v-.02c0-1.14-.16-2.32-.44-3.5h0c4.53,9.01,12.4,26.39,18.87,41.6,15.38,36.18,18.48,60.88,18.95,72.36.72,18.56-2.26,35.92-8.62,50.21h0c-5.25,11.07-17.9,21.86-30.71,26.18-2.69.74-3.63.24-4.96-.4-.22-.11-.47-.22-.73-.34-.78-.69-2.03-1.91-3.14-3.07v.9c.71.72,1.48,1.48,2.18,2.13-.66,0-1.41-.08-2.18-.21v.85c.81.14,1.59.23,2.3.23.18,0,.36,0,.54-.01.22.09.43.19.63.3h0c.88.43,1.76.85,3.07.85.74,0,1.56-.13,2.52-.39h.01c13.07-4.42,25.89-15.35,31.27-26.65h0c6.41-14.42,9.42-31.92,8.7-50.59h0c-1.13-26.94-12.41-57.08-19.03-72.66-4.48-10.53-9.58-22.02-13.81-31.13-2.12-4.56-4.02-8.51-5.52-11.46-.75-1.47-1.4-2.7-1.92-3.62-.52-.91-.91-1.51-1.19-1.81-1.05-1.47-2.97-2.37-5.31-2.54h-.39s-.02-.02-.04-.02c-.04,0-.1,0-.15.03s-.08.08-.09.11c-.02.07-.01.1,0,.13,0,.03.01.06.02.1.03.13.1.31.18.52.15.42.35.98.41,1.4h0v.03c.02.06.06.11.1.13h0c1.45,2.98,2.81,6.98,2.78,9.98,0,.34-.03.68-.06,1h0c-.01.13-.03.25-.05.37-.07.43-.15.85-.27,1.25-.01.05-.03.1-.04.14-.13.41-.29.82-.48,1.21-.01.03-.02.04-.02.05l-.22.41c-1.02,1.14-2.31,2.1-3.84,2.87-3.51,1.45-6.44,2.12-9.96,2.25h-.51c-1.8,0-4.02-.18-6.51-.44-3.91-.41-8.51-1.07-13.27-1.73-7.21-1.02-14.67-2.08-21.2-2.55l-.44-.05h0c-4.8-.76-9.21-.02-12.76,2.2-3.6,2.24-6.25,5.93-7.97,10.92.03-5.85-3.48-10.03-5.87-12.16-.25-.39-.5-.8-.8-1.19-3.03-4.08-8.02-6.59-14.38-7.3-15.72-1.75-40.39-2.63-73.34-2.63-29.06,0-57.37.98-72.13,2.49h0c-6.53.54-11.88,3.05-15.02,7.11-.24.31-.47.6-.68.93-2.4,2.24-6.16,7.25-6.28,12.45-1.97-5.34-5.01-9.11-9.11-11.11h0c-4.24-2.08-8.78-1.97-11.96-1.63,0,0-.34.03-.53.06-4.65.51-9.75,1.19-14.69,1.84-12,1.59-23.35,3.09-29.08,2.49-3.64-.38-5.97-1.11-7.54-1.89s-2.39-1.63-3.02-2.29h0c-.13-.14-.26-.27-.4-.4l-.2-.3h0c-1.24-1.77-1.33-4.63-.85-7.41s1.55-5.45,2.5-6.8l.02-.03v-.03s.38-1.4.47-2.09v-.04s0,.03,0,0c0-.02,0-.05.02-.08s.02-.08,0-.14c0-.06-.04-.15-.11-.2l-.06-.04v-.02l.05-.07ZM129.6,123.6c-.05.25-.14.65-.2,1.02-1.11,1.34-2.3,4.17-2.87,7.2-.57,3.06-.5,6.3,1.12,8.32h0l.05.06h.01c.13.15.28.29.43.45h0c.64.66,1.53,1.58,3.18,2.41s4.06,1.58,7.78,1.96c.9.1,1.94.13,3.09.13,6.29,0,15.98-1.28,26.14-2.62,4.95-.66,10.06-1.33,14.72-1.85,3.14-.37,7.79-.59,12.09,1.52h0c4.62,2.26,7.9,6.83,9.73,13.64l5.2,20.46-5.95-21.18c-1.35-5-4.82-8.13-8.79-9.9-3.97-1.77-8.43-2.19-11.84-1.79h0c-.26.04-24.55,3.35-33.79,4.52-8.88,1.12-14.83,1.25-20.98-1.22-1.6-.64-3.61-1.98-5.09-3.83-1.48-1.84-2.44-4.18-2-6.84h0c.51-3.04,1.22-5.74,3.25-9.85,1.6-2.05,3.15-2.32,4.63-2.57l.1-.02h0v-.02ZM467.9,123.68c2.03.18,3.66.95,4.51,2.17,2.06,3.03,3.23,6.61,3.23,9.82v.02c.26,2.3-.18,4.3-1.29,5.99-.04.06-.08.12-.13.18h0c-.13.18-.26.36-.41.53-.15.18-.31.36-.48.53-.13.13-.25.25-.39.38-2.52,2.31-6.47,3.56-10.35,4.14s-7.69.5-9.88.21h-.08l-.14-.02-.02.05c-3.81-.51-31.54-4.05-40.69-4.94h0c-4.54-.44-8.73,1.09-11.96,3.41-3.23,2.31-5.52,5.41-6.27,8.14h0c-.65,2.16-2.68,9.74-4.81,17.63l3.93-15.4h0c1.55-6.59,4.47-11.23,8.67-13.84h0c3.5-2.18,7.88-2.9,12.7-2.06h.07c6.52.47,13.98,1.52,21.2,2.55,7.13,1.02,13.89,1.97,18.59,2.15.47.02.92.03,1.34.03h.51c6.53-.22,11.34-2.06,14.28-5.4h0l.05-.07h0c.65-1.2,1.02-2.51,1.14-3.94h0c.04-.43.04-.86.03-1.3h0c0-.37-.04-.75-.08-1.13-.27-2.75-1.32-5.86-3.19-9.4-.04-.15-.07-.29-.1-.43h.02ZM298.64,130.4h0c32.93,0,57.58.89,73.26,2.62,6.21.69,11.02,3.13,13.94,7.05h0c3.04,4.07,3.86,9.52,2.36,15.76l-13.12,49.68c-1.19,4.01-3.93,7.73-7.72,10.44h0c-4.41,3.16-10.11,4.88-16.5,4.95-6.94.06-33.38.03-58.21-.02-24.82-.05-48.01-.11-48.5-.11h-.77c-.48,0-1.18-.03-2.01-.1-1.68-.16-3.97-.54-6.38-1.43-4.45-1.65-10.28-5.43-12.77-14.12l-12.72-48.88c-1.55-6.85-.69-12.38,2.5-16.48h0c3.03-3.91,8.2-6.35,14.58-6.88h0c14.72-1.51,43.03-2.49,72.07-2.49h-.01Z"/>
      <path id="path12690-4" class="st7" d="M216.38,198.55l-.2.06c-.1.03-.19.06-.29.09l-.18.06.62,2.21c.7,5.93.96,14.53-4.63,20.96h0c-1.96,2.27-4.78,5.1-8.37,8.67h0c-8.73,8.72-21.95,21.9-37.22,41.7-7.09,8.46-14.82,19.39-21.65,29.01h0c-3.6,5.1-6.97,9.84-9.73,13.5-1.39,1.83-2.62,3.39-3.66,4.58-1.04,1.19-1.9,2.02-2.48,2.37l-.26.16.46.72.17-.1c8.37-1.28,14.01-3.42,17.83-5.52,3.83-2.11,5.83-4.19,6.91-5.32h0c3.29-3.39,9.12-10.56,14.77-17.5,2.55-3.14,5.04-6.19,7.1-8.65s3.7-4.34,4.52-5.1c1.87-1.71,7.03-5.7,14.3-5.7.38,0,.78.01,1.17.03,2.95,3.11,6.97,6.88,12.58,9.42h0c6.6,2.95,12.5,4.37,19.58,4.43,5.5.05,12.11-.65,17.77-2.54h0l.06-.02c.08-.02.16-.06.24-.08,3.86-1.21,8.64-3.97,13.45-7.94l79.02-.1c4.03,3.6,8.44,6.25,13.11,7.85h.04-.01c5.67,1.91,12.3,2.61,17.81,2.56,7.08-.06,13.61-1.12,20.21-4.07h0c5.91-2.62,10.56-7.4,12.44-9.51.23-.02.48-.03.76-.03,1.73,0,4.61.41,7.48,1.31,2.87.9,5.74,2.31,7.48,4.25h0c4.08,4.45,8.48,9.97,12.75,15.3,3.83,4.77,7.55,9.42,10.88,13.12,3.33,3.7,6.25,6.48,8.57,7.5.61.32,3.6,1.88,7.21,3.37s7.82,2.9,10.86,2.9h.35c.11,0,.23-.01.23-.01h.14l.23-.7-.1-.09c-.81-.73-2.17-2.04-3.33-3.27-1.7-2.2-4.85-6.58-8.87-12.12h0c-6.76-9.35-16.02-22.17-24.52-33.23h0c-12.44-16.78-25.21-29.74-44.54-49.31-2.76-3.53-8.27-10.63-6.49-21l.03-.18-.72-.2-.05.18c-2.01,7.11-4.77,11.93-8.4,15.43-4.82,4.66-11.56,7.01-20.61,7.14-9.67.15-35.93.1-59.86.02-11.97-.04-23.36-.1-31.82-.13-8.45-.04-13.95-.07-14.19-.07-9.31,0-16.65-3.26-21.86-9.72-4.51-5.57-6.06-11.91-6.51-14.39v-.03l-.58-2.28h0-.01ZM217.22,204.46c.92,3.11,2.6,7.28,5.75,11.18,5.33,6.61,12.88,9.95,22.36,9.95.1,0,.95,0,2.46.02,1.51,0,3.67.02,6.35.03,5.35.03,12.76.06,21.15.1,16.79.07,37.53.14,53.65.14,9.72,0,17.78-.03,22.27-.09,9.2-.15,16.1-2.53,21.06-7.33h0c3.29-3.19,5.75-7.4,7.77-13.29-.65,9.29,4.35,15.71,6.91,19h0v.02c19.34,19.59,32.11,32.52,44.51,49.26h0c8.5,11.06,17.75,23.86,24.52,33.22,4.02,5.56,7.19,9.94,8.89,12.17h0v.02c.82.86,1.92,1.94,2.83,2.78-2.78-.02-6.72-1.3-10.17-2.72-3.65-1.49-6.76-3.11-7.4-3.45h-.01c-2.12-.95-5.02-3.67-8.31-7.34-3.29-3.67-6.99-8.29-10.8-13.04-4.27-5.34-8.7-10.85-12.79-15.33h0c-1.93-2.16-5.2-3.7-8.43-4.67-3.23-.97-6.42-1.35-8.25-1.14h.02-.13l-.1.1h0c-1.69,1.94-6.19,6.62-11.86,9.27h-.03c-6.07,2.65-12.86,4.15-19.06,4.26-2.3.04-5.47-.09-7.71-.31-3.95-.39-7.71-1.13-11.02-2.15-.02,0-.04-.02-.06-.02-4.42-1.61-9.11-4.46-12.94-7.92l-.08-.09-78.6.21h-1.05l-.06.05c-5.48,4.56-10.28,7.05-13.67,8.04h0c-3.31,1.02-7.07,1.76-11.02,2.15-2.24.22-4.56.36-6.86.32-6.2-.11-12.78-1.65-18.85-4.29h0c-5.2-2.35-9.09-5.79-12.54-9.44h0l-.06-.06h-.07c-.49-.04-.97-.06-1.45-.06h-.23c-.28,0-.56.01-.83.02h0c-.1,0-.19.01-.29.02-7.13.44-12.06,4.41-13.53,5.78h0c-2.73,2.74-7.66,8.8-12.86,15.19h0c-5.1,6.26-10.37,12.74-13.59,16.09-1.06,1.11-2.97,3.09-6.65,5.13-3.57,1.98-8.82,4-16.55,5.28,1.38-1.24,3.27-3.54,5.65-6.7,2.67-3.55,5.9-8.1,9.48-13.16h0c6.82-9.62,14.55-20.52,21.63-28.97h0c15.26-19.78,28.44-32.94,37.16-41.65,3.58-3.58,6.42-6.41,8.41-8.7,2.47-2.84,5.48-7.81,5.03-17.88h.06ZM351.43,285.81h.02-.02Z"/>
      <g id="g4270">
        <g id="RightThumb_Stick">
          <ellipse id="path99901" class="st4" cx="369.81" cy="270.39" rx="25.31" ry="21.34"/>
          <path id="path2196" class="st6" d="M369.81,248.61c-14.19,0-25.77,9.72-25.77,21.78s11.57,21.78,25.77,21.78,25.77-9.72,25.77-21.78-11.58-21.78-25.77-21.78h0ZM369.81,249.43c13.81,0,24.94,9.42,24.94,20.96s-11.13,20.96-24.94,20.96-24.94-9.42-24.94-20.96,11.13-20.96,24.94-20.96ZM369.79,259.13c-9.69,0-17.62,6.32-17.62,14.15s7.93,14.14,17.62,14.14,17.61-6.32,17.61-14.14-7.92-14.15-17.61-14.15h0ZM369.79,259.76c9.38,0,16.98,6.09,16.98,13.52s-7.6,13.52-16.98,13.52-16.98-6.09-16.98-13.52,7.59-13.52,16.98-13.52Z"/>
        </g>
        <g id="Left_Thumb_Stick">
          <ellipse id="path99901-2" class="st4" cx="227.97" cy="270.19" rx="25.21" ry="21.44"/>
          <path id="path2188" class="st6" d="M227.96,248.41c-14.19,0-25.76,9.71-25.76,21.78s11.57,21.78,25.76,21.78,25.77-9.72,25.77-21.78-11.58-21.78-25.77-21.78h0ZM227.96,249.24c13.81,0,24.94,9.42,24.94,20.96s-11.13,20.97-24.94,20.97-24.94-9.43-24.94-20.97,11.12-20.96,24.94-20.96h0ZM227.94,258.93c-9.69,0-17.62,6.31-17.62,14.14s7.93,14.14,17.62,14.14,17.61-6.32,17.61-14.14-7.92-14.14-17.61-14.14h0ZM227.94,259.56c9.38,0,16.98,6.09,16.98,13.52s-7.6,13.52-16.98,13.52-16.98-6.09-16.98-13.52,7.59-13.52,16.98-13.52Z"/>
        </g>
      </g>
      <g id="g76528">
        <path id="path3127" class="st6" d="M308.9,117.77l-20.08.1c-.86,0-1.64.22-2.22.57-.57.36-.95.86-.95,1.43s.37,1.07.95,1.43c.57.36,1.36.57,2.22.57h0l20.08-.1c.86,0,1.64-.22,2.22-.57.57-.36.95-.86.95-1.43s-.37-1.07-.95-1.43-1.36-.57-2.22-.57h0ZM308.9,118.23c.75,0,1.44.18,1.93.47s.77.67.77,1.07c0,.36-.24.71-.65.98-.54-.31-1.25-.51-2.05-.51l-20.08.1c-.8,0-1.51.19-2.05.51-.41-.28-.65-.62-.65-.98,0-.4.28-.78.77-1.07s1.17-.47,1.93-.47h0l20.08-.1Z"/>
        <path id="path1923" class="st6" d="M283.61,228.59c-.72,0-1.38.22-1.87.6-.48.38-.79.91-.79,1.51s.31,1.13.79,1.51,1.14.6,1.87.6,1.38-.22,1.86-.6c.48-.37.8-.91.8-1.51s-.31-1.13-.8-1.51-1.14-.6-1.86-.6ZM291.64,228.59c-.72,0-1.38.22-1.86.6-.48.37-.8.91-.8,1.51s.32,1.13.8,1.51,1.14.6,1.86.6,1.38-.22,1.86-.6c.48-.37.8-.91.8-1.51s-.31-1.13-.8-1.51-1.14-.6-1.86-.6ZM299.65,228.59c-.72,0-1.39.22-1.87.6-.48.37-.8.91-.8,1.51s.31,1.13.8,1.51,1.14.6,1.87.6,1.38-.22,1.86-.6c.48-.37.8-.91.8-1.51s-.31-1.13-.8-1.51-1.14-.6-1.86-.6ZM307.66,228.59c-.72,0-1.38.22-1.86.6-.48.37-.8.91-.8,1.51s.31,1.13.8,1.51,1.14.6,1.86.6,1.38-.22,1.86-.6c.48-.37.8-.91.8-1.51s-.32-1.13-.8-1.51-1.14-.6-1.86-.6ZM315.7,228.64c-.72,0-1.39.22-1.87.6-.48.37-.8.91-.8,1.51s.31,1.14.8,1.52,1.14.6,1.87.6,1.38-.22,1.86-.6c.48-.38.8-.92.8-1.52s-.31-1.13-.8-1.51-1.14-.6-1.86-.6ZM283.61,228.99c.64,0,1.21.2,1.61.52s.65.74.65,1.2-.24.88-.65,1.2-.98.52-1.61.52-1.21-.2-1.62-.52-.64-.74-.64-1.2.24-.88.64-1.2.98-.52,1.62-.52h0ZM291.64,228.99c.64,0,1.21.2,1.61.52s.64.74.64,1.2-.24.88-.64,1.2-.98.52-1.61.52-1.21-.2-1.62-.52-.64-.74-.64-1.2.24-.88.64-1.2c.41-.32.98-.52,1.62-.52ZM299.65,228.99c.64,0,1.21.2,1.61.52s.65.74.65,1.2-.24.88-.65,1.2-.98.52-1.61.52-1.22-.2-1.63-.52-.65-.74-.65-1.2.24-.88.65-1.2.98-.52,1.63-.52ZM307.66,228.99c.64,0,1.21.2,1.62.52s.64.74.64,1.2-.24.88-.64,1.2c-.41.32-.98.52-1.62.52s-1.21-.2-1.61-.52-.65-.74-.65-1.2.24-.88.65-1.2.98-.52,1.61-.52ZM315.7,229.03c.64,0,1.21.2,1.61.52s.65.74.65,1.2-.24.89-.65,1.21-.98.52-1.61.52-1.22-.2-1.63-.52-.65-.74-.65-1.21.24-.88.65-1.2.98-.52,1.63-.52h0ZM287.56,234c-.72,0-1.38.22-1.86.6-.48.37-.8.91-.8,1.51s.31,1.13.8,1.51,1.14.6,1.86.6,1.38-.22,1.86-.6c.48-.37.8-.91.8-1.51s-.31-1.13-.8-1.51-1.14-.6-1.86-.6ZM295.57,234c-.72,0-1.38.22-1.86.6-.48.37-.8.91-.8,1.51s.31,1.13.8,1.51,1.14.6,1.86.6,1.38-.22,1.86-.6c.48-.37.8-.91.8-1.51s-.31-1.13-.8-1.51-1.14-.6-1.86-.6ZM303.6,234c-.72,0-1.38.23-1.87.6s-.8.91-.8,1.51.32,1.13.8,1.51,1.14.6,1.87.6,1.38-.22,1.86-.6c.48-.37.8-.91.8-1.51s-.31-1.13-.8-1.51-1.14-.6-1.86-.6ZM311.62,234.04c-.72,0-1.38.22-1.86.6s-.8.91-.8,1.51.32,1.14.8,1.52,1.14.6,1.86.6,1.38-.22,1.86-.6c.48-.38.8-.92.8-1.52s-.31-1.13-.8-1.51-1.14-.6-1.86-.6ZM287.56,234.39c.64,0,1.21.2,1.62.52s.64.74.64,1.2-.24.88-.64,1.2c-.41.32-.98.52-1.62.52s-1.21-.2-1.61-.52-.65-.74-.65-1.2.24-.88.65-1.2.98-.52,1.61-.52ZM295.57,234.39c.64,0,1.21.2,1.61.52s.65.74.65,1.2-.24.88-.65,1.2-.98.52-1.61.52-1.21-.2-1.62-.52-.64-.74-.64-1.2.24-.88.64-1.2.98-.52,1.62-.52ZM303.6,234.39c.64,0,1.21.2,1.61.52s.65.74.65,1.2-.24.88-.65,1.2-.98.52-1.61.52-1.21-.2-1.62-.52-.65-.74-.65-1.2.24-.88.65-1.2.98-.52,1.62-.52ZM311.62,234.44c.64,0,1.21.2,1.61.52s.64.74.64,1.2-.24.88-.64,1.2c-.41.32-.98.52-1.61.52s-1.21-.21-1.62-.52c-.41-.32-.64-.74-.64-1.2s.24-.88.64-1.2c.41-.32.98-.52,1.62-.52Z"/>
        <path id="PS_Home" class="st6" d="M296.18,244.54v14.03l4.62,1.01v-11.77c0-.56.33-.88.91-.8.43.07.93.28.92,1.21v4.7c2.88.96,5.15,0,5.15-2.52s-1.32-3.74-5.24-4.66c-1.54-.36-4.4-.95-6.36-1.2h0ZM295.27,253.02l-6.62,1.62s-1.6.36-2.55.83c-1.01.52-.64,1.42,1.59,1.86,2.4.55,4.84.65,7.12.39.16-.01.31-.03.46-.04v-1.66l-2.28.58c-.85.21-2.08.25-2.77.1-.68-.16-.56-.46.29-.67l4.76-1.17v-1.85h0ZM306.77,253.82c-.47,0-.93.02-1.37.05-2.01.16-3.44.5-3.44.5l-.29.07v1.91l4.95-1.2c.85-.21,2.08-.25,2.77-.1.68.16.55.44-.29.66l-7.43,1.81v1.85l10.1-2.49s1.36-.34,1.9-.82c.56-.49.31-1.18-1.87-1.66-1.51-.39-3.34-.58-5.03-.58h0Z"/>
      </g>
      <g id="Mute">
        <path id="path1941" class="st6" d="M299.03,274.19c-.31.01-.54.1-.54.21v.27l2.18.77v-.17h.55v.36l.47.17c.06-.06.09-.12.09-.19v-.48h-1.1v-.72c0-.12-.27-.21-.6-.21h-1.05ZM297.04,274.36l-.39.13,5.46,1.93.39-.15-5.46-1.91h0ZM297.4,275.12v.48c0,.33.76.6,1.69.6h.22v.19h-.82c-.16,0-.28.04-.28.09,0,.06.12.1.28.1h2.18c.16,0,.28-.04.28-.1,0-.04-.12-.09-.27-.09h-.82v-.19h.21c.25,0,.5-.02.71-.06l-.42-.15c-.09.01-.19.02-.29.02h-.98c-.63,0-1.15-.19-1.15-.41v-.34h.36l-.43-.15h-.47,0ZM298.49,275.34v.27c0,.12.27.21.6.21h.76l-1.36-.48h0Z"/>
        <g id="g87027">
          <path id="path76576" class="st8" d="M310.21,267.94c0,.26-.07,1.63-.59,2.36-.25.36-.6.7-1.01.78,0,0-1.46.01-2.26,0-3.4-.06-8.04.11-11.7.07-1-.01-2.06.1-2.9.09-.57,0-1-.06-1.35-.24-.73-.46-1.09-1.33-1.18-2.1-.04-.4-.13-.93.14-1.12,1-.67,5.99-.34,9.33-.41,2.9-.06,6.1-.11,8.39-.04,1.84.05,3.12.16,3.12.62h.01Z"/>
        </g>
        <path id="path3591" class="st6" d="M291.12,267.12c-.32,0-.63.03-.93.08h0s-.11.02-.15.03c-.29.05-.58.13-.83.24h-.03l-.15.06v.03c-.76.36-1.29.88-1.29,1.53,0,.44.24.85.64,1.17s.96.58,1.63.71l.08.02c.27.21.57.37.9.37h17.44c.37,0,.7-.15.98-.39.67-.13,1.24-.38,1.65-.7.41-.33.66-.74.66-1.19,0-.68-.58-1.26-1.42-1.61v.03h-.01v-.02h-.03s-.03-.03-.03-.03h-.02c-.23-.09-.49-.15-.76-.21-.08-.03-.15-.04-.22-.05h0c-.28-.03-.57-.07-.89-.07h-17.22ZM310.26,267.52h0l-.02.06h0l.03-.07h-.01ZM291.11,267.58h17.19c.28,0,.54.03.81.07h-.01s.1.02.15.02c.24.05.46.11.67.18.03.21.05.4.05.57,0,.7-.18,1.34-.47,1.79s-.67.72-1.08.72h-17.45c-.41,0-.79-.26-1.09-.72s-.48-1.09-.48-1.79c0-.17.02-.34.05-.53.23-.09.46-.16.71-.2h.02l.07-.02h.02c.27-.04.56-.08.84-.08h0ZM310.41,268.1c.49.28.81.63.81,1,0,.27-.15.54-.43.78-.21.18-.56.31-.9.44.32-.52.54-1.17.54-1.91,0-.1-.01-.2-.02-.31h0ZM288.95,268.13c0,.09-.02.19-.02.28,0,.76.27,1.39.6,1.93-.37-.13-.72-.27-.93-.47-.27-.24-.41-.5-.41-.77h0c0-.36.31-.69.77-.97h-.01Z"/>
      </g>
      <g id="Create">
        <path id="path1949" class="st6" d="M191.1,150.94v4.3h.91v-4.3h-.91ZM187.81,152.64l-.77.42,1.8,2.88.77-.41-1.8-2.89h0ZM195.29,152.64l-1.8,2.89.77.41,1.8-2.88-.77-.42h0Z"/>
        <path id="path58460" class="st2" d="M192.03,176.61c.94.65,2.09.6,3.06.5,1.8-.19,2.9-.83,3.69-1.43,1.07-.81,1.54-1.95,1.58-4.1-1.37-3.93-1.86-6.84-2.55-9.06-.62-1.99-1.9-3.39-4.91-4.06-3.06.12-4.3,1.05-5.13,2.16-.3.61-.88,1.65-.84,2.71.06,1.41.64,3,1.14,4.7.72,2.43,1.49,5,2.11,6.8.33.97,1.4,1.46,1.84,1.8h0v-.02Z"/>
        <path id="path6138" class="st6" d="M192.27,158.19c-.26,0-.53.02-.79.05h0c-1.56.22-2.97,1-3.86,2.16h0c-.81,1.07-1.13,2.35-.89,3.62h0c.9,3.27,1.9,6.57,2.81,9.77.25,1.21.98,2.24,2.05,2.92.79.51,1.71.77,2.66.77.33,0,.66-.03.98-.1l.62-.04h0c1.55-.21,2.9-.96,3.79-2.12.81-1.07,1.14-2.37.9-3.66h0l-2.53-9.07c-.48-2.52-2.97-4.31-5.74-4.3h0ZM192.33,158.74c2.49,0,4.71,1.63,5.13,3.86h0l2.53,9.06c.21,1.13-.08,2.29-.79,3.23-.41.53-.95.95-1.55,1.27,1.18-1.07,1.81-2.65,1.49-4.28h0l-2.36-8.12c-.24-1.21-.97-2.25-2.04-2.93h0c-1.08-.68-2.39-.92-3.67-.67h0c-1.94.39-3.38,1.82-3.81,3.56-.15-1.05.12-2.1.8-2.99h0c.81-1.04,2.08-1.76,3.5-1.94h0c.26-.04.52-.05.78-.05h-.01ZM192.03,160.61c.85,0,1.68.23,2.4.68.94.6,1.58,1.52,1.8,2.59h0l2.36,8.12c.44,2.2-1.1,4.38-3.45,4.84-1.14.23-2.29.02-3.24-.59h0c-.95-.6-1.58-1.51-1.81-2.59h0l-2.35-8.12c-.44-2.2,1.09-4.38,3.44-4.84.29-.06.58-.09.86-.09h0Z"/>
      </g>
      <g id="Start">
        <path id="path1955" class="st6" d="M403.06,150.59v.7h6.4v-.7h-6.4ZM403.06,152.78v.69h6.4v-.69h-6.4ZM403.06,154.97v.69h6.4v-.69h-6.4Z"/>
        <path id="path58460-3" class="st2" d="M406.84,175.69c-1.2,1.47-2.7,1.56-4.14,1.41-1.8-.19-2.85-.68-3.63-1.27-1.07-.81-1.54-1.95-1.58-4.1,1.37-3.93,1.86-6.84,2.55-9.06.62-1.99,1.31-3.45,4.32-4.12,1.66-.29,2.93.03,3.92.55,1.35.69,2.14,1.84,2.34,3.17.07.45.22.97.19,1.44-.78,3.12-1.63,7.64-2.93,10.49-.22.5-.8,1.11-1.04,1.51h0v-.02Z"/>
        <path id="path6635" class="st6" d="M405.36,158.33h0c-2.68.08-5.05,1.84-5.5,4.28l-2.53,9.09h0c-.24,1.28.06,2.59.88,3.66.88,1.16,2.24,1.91,3.79,2.12l.18.02h0c.22,0,.43.02.66.03h.01c2.76,0,5.22-1.79,5.68-4.29l2.53-9.07v-.02c.24-1.28-.07-2.58-.89-3.63h0c-.88-1.17-2.24-1.91-3.79-2.12h0c-.29-.04-.58-.06-.86-.06h-.16ZM405.54,158.87h0c.25,0,.51.02.77.06,1.41.18,2.62.86,3.42,1.91.65.85.92,1.87.81,2.9-.44-1.68-1.83-3.04-3.76-3.43-1.27-.25-2.58,0-3.66.67h0c-1.07.69-1.79,1.73-2.03,2.93h0l-2.36,8.13h0c-.32,1.62.29,3.2,1.47,4.26-.6-.32-1.13-.74-1.53-1.26h0c-.73-.96-1.01-2.1-.79-3.22h0l2.52-9.05h0c.42-2.24,2.64-3.87,5.14-3.87h0v-.03ZM405.77,160.75c.3,0,.6.03.91.09h0c2.36.47,3.84,2.58,3.39,4.82l-2.08,7.46h0c-.43,2.31-2.78,3.95-5.39,3.84-2.28-.51-3.76-2.65-3.33-4.8l2.36-8.13h0c.2-1.08.85-2,1.79-2.6h0c.71-.44,1.52-.67,2.35-.68h0Z"/>
      </g>
      <g id="Triangle">
        <path id="path1867" class="st1" d="M439.67,168.7c-.28,0-.57,0-.86.02-8.73.48-12.93,5.61-14.37,11.18-.47,1.85-1.07,6.46,1.7,9.77h0c2.31,4.06,7.28,6.73,13.03,6.48,7.94-.33,14.37-6.12,14.36-12.92.13-1.3-.31-3.11-.43-4.1-.83-5.81-6.47-10.43-13.43-10.43h0ZM440.6,171.56h.18c.06,0,.12,0,.18,0-.06,0-.12,0-.18,0h-.18ZM441.14,171.59c.06,0,.12,0,.18,0s.12,0,.18.02c-.06,0-.12,0-.18-.02s-.12,0-.18,0ZM438.02,171.64c-.06,0-.12,0-.18.02.06,0,.12,0,.18-.02ZM442.03,171.69c.06,0,.11,0,.17.02-.06,0-.11,0-.17-.02ZM437.47,171.71c-.06,0-.12.02-.18.03.06,0,.12-.02.18-.03ZM442.56,171.76s.11.02.16.03c-.05,0-.11-.02-.16-.03ZM437.07,171.77s-.09,0-.14.02c.04,0,.09-.02.14-.02ZM443.78,172.02c.08.02.17.04.25.06-.08-.02-.17-.04-.25-.06Z"/>
        <path id="path7237" class="st6" d="M439.48,168.43h0c-.23,0-.46,0-.69.03-5.13.28-8.54,2.12-10.78,4.4s-3.32,4.98-3.84,6.99h0c-.26,1.02-1.39,6.22,1.75,9.99,2.33,4.07,7.2,6.61,12.54,6.61.23,0,.48,0,.72,0,8.07-.35,14.64-6.25,14.63-13.18h0c.09-1.01-.12-2.26-.29-3.25h0c-.06-.35-.12-.66-.15-.91h0c-.87-6.12-6.83-10.67-13.73-10.66h-.16ZM439.65,168.97h0c6.38,0,11.88,4.04,13.04,9.52-.05-.09-.1-.18-.15-.28h0c-.13-.26-.28-.52-.45-.78h0c-.08-.14-.17-.27-.26-.39h0c-.18-.25-.37-.5-.57-.74h0c-.09-.12-.17-.22-.26-.33h0c-.3-.34-.62-.67-.97-.99-2.78-2.54-6.76-3.88-10.9-3.7-8.07.35-14.65,6.25-14.64,13.2,0,.41.03.82.08,1.21-.55-2.61-.02-5.08.15-5.72v-.04c.51-1.94,1.56-4.52,3.7-6.7,2.16-2.19,5.42-3.97,10.41-4.24.28,0,.55-.02.83-.02h0ZM439.55,171.82h0c.23,0,.46,0,.69,0,.25,0,.47,0,.7.03h0c.23,0,.46.03.7.06h0c.24.02.48.06.71.09.22.03.44.08.66.12.25.06.49.1.72.17h0c.19.04.4.11.6.17h0c.24.07.48.13.71.22h0c.19.06.39.15.59.23.22.09.44.18.66.27h0c.2.1.4.21.62.31.2.11.39.2.57.31.23.14.45.29.67.44h0c.15.11.3.19.44.29.35.26.69.54,1.01.82,2.33,2.11,3.61,4.9,3.62,7.86,0,6.63-6.3,12.31-14.09,12.65h-.02c-.23,0-.46.02-.69.02-5.17,0-9.85-2.46-12.07-6.36h0c-.9-1.57-1.35-3.27-1.36-5.06h0c0-6.62,6.31-12.31,14.1-12.65h0c.14,0,.27,0,.41,0h.05Z"/>
        <path id="path1931" class="st6" d="M438.99,177.12l6.62,10.29-13.86.24,7.24-10.54h0ZM439.15,174.55l-9.88,14.35,18.89-.33-9.01-14.02h0Z"/>
      </g>
      <g id="Square">
        <path id="path1871" class="st1" d="M405.35,197.36c-6.93,0-12.73,3.82-14.21,8.95-.32,1.08-1.01,3.74-.51,5.22h0c0,6.37,6.53,11.54,14.58,11.54s14.58-5.17,14.58-11.54c.28-1.54.22-3.25-.03-4.33-1.04-5.56-7.1-9.84-14.42-9.84h.01ZM405.12,199.97h.28-.37.1-.01ZM404.47,199.99h-.19.19ZM405.97,199.99h.19-.19ZM403.54,200.05c-.06,0-.12,0-.18.02.06,0,.12,0,.18-.02ZM406.89,200.05c.06,0,.12,0,.18.02-.06,0-.12,0-.18-.02ZM403.18,200.08c-.06,0-.12,0-.18.02.06,0,.12,0,.18-.02ZM407.26,200.08c.06,0,.12,0,.18.02-.06,0-.12,0-.18-.02ZM402.27,200.21c-.06,0-.12.02-.18.03.06,0,.12-.02.18-.03ZM408.15,200.21c.06,0,.12.02.18.03-.06,0-.12-.02-.18-.03ZM400.54,200.58c-.06,0-.11.03-.17.05-.06.02-.11.03-.17.05.06-.02.11-.03.17-.05.06-.02.11-.03.17-.05ZM410.06,200.63c.06.02.11.03.17.05-.06-.02-.11-.03-.17-.05ZM400.03,200.72c-.06.02-.11.03-.17.05.06-.02.11-.03.17-.05ZM410.4,200.72c.06.02.11.03.17.05-.06-.02-.11-.03-.17-.05ZM399.7,200.83c-.06.02-.11.04-.17.05.05-.02.11-.04.17-.05ZM410.73,200.83c.06.02.11.04.17.05-.05-.02-.11-.04-.17-.05ZM398.89,201.11s-.11.04-.16.06c.05-.02.11-.04.16-.06ZM398.26,201.37s-.1.04-.15.07c.05-.02.1-.04.15-.07ZM412.17,201.37s.1.04.15.07c-.05-.02-.1-.04-.15-.07ZM412.93,201.72s.1.05.15.08.1.05.15.08c-.05-.03-.1-.05-.15-.08s-.1-.05-.15-.08ZM396.92,202.02s-.1.05-.14.08-.1.05-.14.08c.05-.03.1-.05.14-.08s.1-.05.14-.08ZM413.66,202.11s.1.05.14.08.1.06.14.08c-.05-.03-.1-.06-.14-.08-.05-.03-.1-.05-.14-.08ZM414.08,202.35s.09.06.14.08c-.04-.03-.09-.06-.14-.08ZM396.07,202.52s-.09.06-.13.09c.04-.03.09-.06.13-.09ZM414.36,202.52s.09.06.13.09c-.04-.03-.09-.06-.13-.09ZM395.8,202.7s-.09.06-.13.09c.04-.03.09-.06.13-.09ZM414.63,202.7s.09.06.13.09c-.04-.03-.09-.06-.13-.09ZM395.41,202.97s-.09.06-.13.1c.04-.03.09-.06.13-.1ZM395.03,203.26s-.08.06-.13.1c.04-.03.08-.06.13-.1ZM394.78,203.45s-.08.07-.12.1c.04-.03.08-.07.12-.1ZM394.42,203.76s-.08.07-.12.1-.08.07-.11.1c.04-.03.08-.07.11-.1s.08-.07.12-.1ZM416.01,203.76s.08.07.12.1.08.07.11.1c-.04-.03-.08-.07-.11-.1s-.08-.07-.12-.1ZM416.47,204.18s.07.07.11.11.07.07.11.11l-.11-.11s-.07-.07-.11-.11ZM393.53,204.61s-.07.07-.1.11-.07.08-.1.11-.07.08-.1.11-.07.08-.1.11c.03-.04.07-.08.1-.11s.07-.08.1-.11.07-.08.1-.11c.03-.04.07-.08.1-.11ZM417.11,204.84s.07.08.1.11c-.03-.04-.07-.08-.1-.11Z"/>
        <path id="path7226" class="st6" d="M405.35,197.09c-6.94,0-12.91,3.73-14.48,9.14h0c-.16.55-.41,1.49-.56,2.49-.15.99-.2,2.04.06,2.83.03,6.52,6.69,11.78,14.85,11.78s14.84-5.26,14.85-11.79c.26-1.4.25-3,0-4.21h0l-.03-.19c-1.07-5.76-7.4-10.05-14.7-10.05h.01ZM405.35,197.63h0c7.06,0,13.13,4.16,14.15,9.62h0c.11.47.17,1.04.19,1.65-.08-.29-.17-.57-.28-.85-.05-.12-.11-.24-.16-.35h0c-.1-.23-.2-.47-.32-.7h0c-.06-.14-.15-.28-.23-.4h0c-.12-.2-.23-.4-.37-.61h0c-.09-.14-.19-.27-.29-.41-.13-.18-.27-.36-.42-.54h0c-.11-.14-.23-.26-.35-.4h0c-.15-.17-.3-.34-.48-.5h0c-.13-.13-.26-.25-.39-.37h0c-.17-.16-.34-.31-.52-.45-.15-.13-.29-.24-.44-.35h0c-.18-.13-.36-.28-.56-.4h0c-.16-.11-.32-.21-.48-.31h0c-.2-.12-.4-.24-.6-.36h0c-.17-.1-.34-.19-.51-.28h0c-.22-.11-.44-.22-.66-.32h0c-.17-.08-.34-.16-.53-.24h0c-.23-.11-.47-.18-.7-.27h0c-.19-.07-.37-.13-.56-.2h0c-.25-.08-.51-.15-.76-.21h0c-.18-.05-.37-.11-.57-.16h0c-.29-.07-.55-.11-.83-.17h0c-.17-.03-.36-.08-.55-.1h0c-.32-.06-.64-.09-.95-.12h0c-.15,0-.3-.03-.46-.04-.48-.04-.98-.07-1.47-.07s-.99.02-1.47.07c-.17,0-.32.03-.47.04h0c-.31.03-.63.07-.95.12h0c-.19.03-.37.07-.55.1h0c-.28.06-.56.11-.83.17h-.01c-.19.06-.37.11-.56.16h-.01c-.25.08-.5.15-.76.22h0c-.19.07-.37.13-.56.2-.24.08-.48.17-.71.27h0c-.18.08-.36.16-.54.25-.22.1-.43.2-.66.31h0c-.17.09-.34.19-.51.28h-.01c-.2.13-.4.24-.6.36h-.01c-.15.11-.32.21-.48.33-.19.13-.37.25-.56.4-.15.11-.29.24-.44.34h0c-.17.16-.34.3-.51.46-.13.12-.27.25-.41.38-.16.16-.3.32-.45.48h0c-.12.13-.24.26-.36.41h0c-.15.17-.27.34-.39.51h0c-.12.15-.22.31-.32.44-.13.18-.23.37-.34.55-.09.15-.18.31-.26.45h0c-.1.21-.18.4-.27.59h0c-.06.15-.14.31-.2.48h0s-.03.07-.03.1c.15-.74.33-1.42.45-1.84v-.03c1.51-5.12,7.22-8.71,13.94-8.71h-.04l-.02.02ZM405.22,200.25c7.91,0,14.3,5.07,14.3,11.27s-6.39,11.27-14.3,11.27-14.3-5.08-14.3-11.27,6.39-11.27,14.3-11.27Z"/>
        <path id="path1929" class="st6" d="M411.46,216.04l-13.1-.06.28-10.5,13.11.1-.29,10.46h0ZM397.53,204.23l-.33,12.98,15.44.07.33-12.92-15.44-.13h0Z"/>
      </g>
      <g id="Cross">
        <path id="path1875" class="st1" d="M437.94,224.31c-.81,0-1.63.04-2.45.15-8.02.98-13.94,6.56-13.19,12.47l.56,2.57c-.36-2.86.81-5.64,2.99-7.86-2.19,2.22-3.36,5-2.99,7.86.73,5.91,7.7,9.91,15.54,8.95,7.68-.94,13.37-6.3,12.9-12.07.01.11.02.23.03.34l.28-3.43c.15-5.08-6.49-8.96-13.66-8.98h0ZM435.9,227.04c-.06,0-.12,0-.18.02.06,0,.12,0,.18-.02ZM426.75,230.81c-.08.07-.16.13-.23.2.08-.07.15-.13.23-.2Z"/>
        <path id="path7214" class="st6" d="M437.94,224.04h-.02c-.82,0-1.64.04-2.45.15-4.08.49-7.62,2.17-10.05,4.47-2.43,2.31-3.77,5.27-3.39,8.31h0l.66,3.19h.02c.45,2.25,1.76,4.25,3.86,5.81h0c2.56,1.88,5.92,2.89,9.49,2.89.78,0,1.57-.04,2.37-.15,7.47-.91,13.11-5.96,13.16-11.6h0l.3-3.99h0c0-1.88-.92-3.67-2.59-5.19h.07l-.37-.31c-2.72-2.27-6.86-3.58-11.07-3.59h.01ZM437.82,224.59h0c4.12,0,8.2,1.26,10.82,3.46,1.77,1.5,2.7,3.25,2.7,5.06l-.12,1.6c-.57-1.98-1.79-3.76-3.68-5.15-3.11-2.3-7.42-3.3-11.86-2.76-6.9.85-12.24,5.23-13.06,10.33l-.05-.24c-.36-2.85.9-5.65,3.24-7.85,2.34-2.21,5.77-3.83,9.72-4.3.76-.09,1.52-.14,2.28-.14h0ZM438.05,227.2c3.48,0,6.72.97,9.16,2.78,2.19,1.61,3.49,3.71,3.79,6.07.36,2.86-.87,5.64-3.15,7.85s-5.62,3.81-9.47,4.28h0c-4.31.53-8.48-.44-11.45-2.64-2.19-1.61-3.49-3.71-3.79-6.07-.36-2.86.87-5.65,3.15-7.85s5.62-3.81,9.47-4.27c.77-.1,1.54-.14,2.29-.14h0Z"/>
        <path id="path1925" class="st6" d="M444.78,232.04l-1.06-.98s-3.22,2.58-6.72,5.35c-3.28-2.62-6.41-5.16-6.41-5.16l-1.06.92c.37.39,3.27,2.73,6.32,5.15-2.67,2.1-5.32,4.16-6.72,5.14l1,.85,6.73-5.17c3.27,2.59,6.39,5.05,6.39,5.05l1.06-.99c-.59-.4-3.37-2.62-6.28-4.96l6.75-5.2h0Z"/>
      </g>
      <g id="Circle">
        <path id="path1879" class="st1" d="M472.69,195.49c-2.33,0-4.77.51-7.15,1.55-7.6,3.33-11.57,10.9-8.88,16.93l.54,1.31c.07.17.14.34.21.51,2.69,6.03,10.66,8.39,17.79,5.26,4.53-1.98,7.63-5.69,8.6-9.68.8-1.33,1.01-3.42,1.01-3.42.4-2.05.21-4.12-.64-6.03-1.86-4.15-6.38-6.47-11.5-6.44h.02ZM471.87,197.86h.33-.33ZM475.45,198.28c.08.02.15.04.23.06-.08-.02-.15-.04-.23-.06ZM479.77,200.26s.05.03.07.05c-.02-.02-.05-.03-.07-.05ZM480.13,200.53s.06.05.09.07c-.03-.03-.06-.05-.09-.07ZM460.46,202.64h0c-.12.12-.23.24-.34.36-.19.2-.37.41-.54.62-.24.29-.47.59-.69.9-.12.18-.24.35-.36.53.11-.18.23-.36.36-.53.22-.31.44-.61.69-.9.17-.21.36-.41.54-.62.11-.12.23-.24.34-.36h0ZM458.44,205.18c-.2.32-.38.64-.55.96-.05.09-.1.19-.14.28.04-.09.09-.19.14-.28.17-.32.35-.65.55-.96ZM457.69,206.56c-.24.52-.45,1.04-.62,1.58-.03.1-.06.19-.09.29-.06.2-.11.39-.15.59-.06.25-.11.49-.15.74s-.07.5-.1.74-.04.5-.05.74c-.02.57.01,1.14.09,1.71.02.15.04.3.07.44.08.44.19.88.32,1.32.04.12.08.24.12.36.02.05.03.1.05.14-.02-.05-.04-.1-.05-.14-.04-.12-.08-.24-.12-.36-.14-.43-.25-.87-.32-1.32-.03-.15-.05-.3-.07-.44-.08-.57-.1-1.14-.09-1.71,0-.25.02-.5.05-.74s.06-.5.1-.74.09-.5.15-.74c.04-.2.1-.39.15-.59.03-.1.06-.2.09-.29.17-.53.37-1.06.62-1.58Z"/>
        <path id="path7203" class="st6" d="M472.76,195.22c-2.44,0-4.96.53-7.34,1.57h0c-7.71,3.38-11.78,11.11-9.03,17.29h0l.53,1.29h0c.06.19.15.36.22.54h0c1.22,2.72,3.56,4.83,6.58,5.95h0c1.58.57,3.26.86,4.98.86,2.21,0,4.47-.46,6.6-1.39h0c4.44-1.94,7.71-5.62,8.75-9.85.41-.68.66-1.52.81-2.2.08-.34.13-.65.17-.88.03-.22.05-.37.05-.37.42-2.14.18-4.29-.67-6.19h0c-1.15-2.59-3.43-4.62-6.39-5.7-1.65-.6-3.43-.9-5.27-.9h0v-.02ZM472.79,195.76c1.77,0,3.49.29,5.06.87,2.82,1.03,4.98,2.96,6.08,5.41.8,1.8,1.02,3.83.62,5.88l-.04.2h.02v.04c-.02.14-.05.34-.1.58v.04-.29c0-.17,0-.34-.03-.53,0-.12-.03-.23-.03-.33h0c0-.17-.03-.34-.06-.5h0c-.03-.11-.03-.22-.06-.34-.03-.17-.06-.32-.1-.49h0c-.03-.12-.06-.21-.08-.32h0c-.05-.18-.1-.37-.16-.54h0c-.03-.08-.06-.17-.09-.27-.09-.26-.19-.52-.3-.78h0c-1.22-2.72-3.56-4.84-6.59-5.94h0c-3.58-1.32-7.79-1.12-11.58.54-.43.18-.83.38-1.23.6h0c-.14.08-.26.16-.37.22h0c-.27.15-.53.3-.78.47h0c-.14.1-.28.18-.42.29h0c-.22.15-.44.31-.65.47h0c-.13.11-.27.22-.41.34-.2.17-.39.33-.58.51h0c-.14.11-.26.24-.37.34h0c-.19.2-.37.39-.55.58-.11.11-.22.24-.33.36h0c-.19.22-.37.44-.54.67h0c-.08.09-.16.19-.24.3h0c-.24.34-.46.68-.67,1.01h0c-.06.09-.09.16-.12.23-.17.27-.32.55-.45.84h0c-.06.13-.13.27-.19.39h0c-.1.23-.2.46-.29.7-.06.15-.11.29-.16.46-.08.22-.15.44-.21.67h0c-.04.15-.08.31-.12.46h0c-.05.23-.1.45-.13.68h0c-.03.17-.06.32-.08.48h0c-.03.24-.06.48-.06.72h0c0,.13-.03.28-.03.43h0v.48c-.97-5.42,2.82-11.53,9.39-14.4h0c2.32-1.03,4.77-1.53,7.12-1.53h-.09ZM472.06,198.15h.25c.18,0,.37,0,.55.02.27.02.53.04.79.08.18.02.36.04.52.07.29.04.57.11.85.17h.01c.14.02.28.05.42.09h0c.42.11.83.23,1.24.38h0c2.89,1.05,5.11,3.06,6.26,5.65.92,2.07,1.12,4.38.56,6.7-.99,4.06-4.14,7.62-8.45,9.51h0c-3.64,1.6-7.7,1.78-11.14.53h0c-2.89-1.07-5.11-3.07-6.26-5.66h0c-.12-.27-.22-.54-.32-.82h0c-.06-.18-.12-.37-.17-.53h0c-.06-.2-.1-.4-.14-.6h0c-.05-.18-.08-.35-.11-.54-.03-.2-.06-.39-.08-.59h0c0-.19-.03-.37-.05-.55v-1.15h0c0-.2.03-.4.06-.61h0c.03-.18.05-.35.06-.54h0c.04-.21.09-.4.13-.61.05-.18.08-.37.13-.53h0c.06-.2.12-.4.19-.6h0c.06-.18.11-.35.17-.53.08-.2.17-.4.25-.6.08-.17.15-.33.23-.5h0c.1-.2.21-.39.32-.58h0c.09-.17.18-.34.27-.48h0c.12-.19.25-.37.39-.56h0c.1-.16.2-.31.31-.46h0c.13-.18.28-.36.44-.55h0c.13-.15.24-.29.36-.43h0c.15-.18.33-.35.49-.52.13-.13.27-.27.4-.4.18-.17.38-.32.58-.51h0c.13-.11.27-.24.41-.35h0c.2-.16.43-.32.66-.47h0c.15-.1.28-.22.42-.31.26-.17.53-.32.79-.46h0c.14-.08.26-.17.38-.23h0c.41-.22.82-.43,1.25-.62h0c.48-.21.98-.4,1.47-.56h0c.15-.04.32-.09.48-.13h0c.34-.1.69-.2,1.02-.28h0c.2-.04.38-.08.58-.11h0c.32-.06.63-.11.95-.15.2-.02.4-.03.61-.06h0c.32-.02.61-.03.92-.04h.48l.07.02Z"/>
        <path id="path1927" class="st6" d="M473.06,215.65c-4.12,1.42-8.42-.13-9.61-3.48-1.18-3.35,1.2-7.23,5.32-8.65s8.42.13,9.61,3.48c1.18,3.36-1.2,7.23-5.32,8.65M479.86,206.48c-1.42-4.02-6.58-5.88-11.51-4.17s-7.8,6.35-6.37,10.37c1.42,4.02,6.58,5.88,11.51,4.17,4.94-1.7,7.8-6.35,6.37-10.37"/>
      </g>
      <g id="D-Pad">
        <g id="Right">
          <path id="path1887" class="st1" d="M159.56,178.06c-9.6,0-12.49,2.16-12.57,5.47v5.08c0,.22,0,.44.02.68l.97,8.16c.15,1.02.6,1.82,1.87,2.85l6.35,5.13c1.65,1.26,4.42,1.66,6.65-.11l6.51-5.31c.82-.62,1.49-1.42,1.65-2.5l.74-8.16c0-.18.02-.38,0-.58-.03-1.47-.71-3.35-3.23-4.49-.29-.13-.6-.25-.95-.36.34.11.66.22.95.36,2.52,1.15,3.19,3.02,3.23,4.49v-4.92c0-1.49-.62-3.46-3.23-4.65-1.86-.86-4.78-1.15-8.98-1.15h.02Z"/>
          <path id="path7714" class="st6" d="M159.37,177.79h0c-4.25.02-7.37.44-9.45,1.36-2.12.93-3.17,2.4-3.22,4.38h0v5.38l-.04-.04,1.02,8.61h0c.17,1.16.74,2.04,1.97,3.03l6.35,5.13h0c.9.68,2.13,1.15,3.44,1.15,1.18,0,2.43-.37,3.56-1.26h0l6.49-5.31c1.04-.78,1.61-1.66,1.75-2.69h0l.76-8.17h0c0-.19.03-.39,0-.61v-4.91c0-1.24-.45-3.56-3.39-4.91h0c-1.81-.82-4.52-1.16-9.09-1.16h-.19l.04.02ZM159.58,178.33c4.51,0,7.16.35,8.85,1.12,2.73,1.24,3.09,3.29,3.08,4.4h0v2.75s-.03-.07-.06-.11c0-.02,0-.04-.03-.06-.07-.13-.16-.25-.22-.37h0s-.06-.09-.08-.11h0c-.08-.1-.14-.19-.22-.29h0s-.06-.07-.09-.11h0c-.1-.12-.22-.25-.36-.37l.02.02s-.03-.03-.06-.05c-.13-.12-.28-.24-.41-.35-.05-.04-.1-.08-.17-.11-.11-.07-.22-.15-.36-.23h0c-.05-.04-.12-.08-.18-.11-.19-.11-.39-.21-.59-.31h0c-1.81-.83-4.52-1.18-9.09-1.18-.51,0-1,0-1.48.02-.16,0-.31,0-.46.02-.31,0-.62,0-.93.03-.17,0-.33.02-.5.03h0c-.26.02-.53.03-.79.06h0c-.16.02-.32.03-.49.06-.24.02-.48.04-.72.08h0c-.14.02-.3.04-.44.07-.23.03-.46.07-.68.11h0c-.12.02-.25.04-.37.07-.26.04-.5.1-.73.16h0c-.08.02-.16.04-.23.05h-.03c-.3.09-.59.17-.88.27h0c-.06.02-.13.04-.18.07-.21.07-.41.14-.61.23h0c-.1.04-.18.08-.25.11h-.02c-.14.08-.3.16-.43.23h0c-.09.06-.16.11-.24.15h0c-.13.08-.25.15-.36.24-.11.06-.17.13-.22.16h0c-.11.1-.21.19-.31.28h0c-.06.06-.13.12-.19.18h0c-.11.11-.2.22-.28.33h0c-.03.05-.08.11-.13.17h0c-.09.14-.17.28-.25.42v-2.92c.04-1.8.97-3.08,2.97-3.94s5.08-1.28,9.34-1.28h-.12ZM159.56,183.41h0c4.51,0,7.16.34,8.84,1.11,2.64,1.21,3.05,3.19,3.08,4.25h0c0,.2,0,.38-.03.54l-.03.2h.02l-.73,7.94c-.12.88-.61,1.63-1.54,2.34h0l-6.51,5.3c-2.19,1.72-4.8,1.26-6.3.11l-6.35-5.13h0c-1.16-.93-1.62-1.64-1.77-2.67l-.98-8.14c0-.22-.03-.45-.03-.65h0c.05-1.8.98-3.07,2.98-3.93,2-.86,5.08-1.28,9.33-1.28h.02Z"/>
          <path id="path1935" class="st6" d="M157.42,188.31c-.59.52-.79,1.05.06,1.05s5.17.07,5.17.07c.66,0,.86-.2.2-.79-.67-.59-2.26-1.77-2.26-1.77-.33-.33-.79-.52-1.53.13-.72.66-1.66,1.31-1.66,1.31"/>
        </g>
        <g id="Left">
          <path id="path1889" class="st1" d="M130.08,198.5c-1.95,0-4.52.51-6.07,2.54-1.12,1.47-1.5,3.76-1.5,7.05v3.39c0,8.06,3.21,10.11,8.08,9.88l10.69-.77c1.35-.11,2.39-.47,3.74-1.47l6.73-4.99c.88-.69,1.44-1.64,1.41-2.64v-3.19c.05-.92-.41-1.91-1.57-2.79l-6.95-5.12c-.82-.65-1.87-1.18-3.28-1.29l-10.69-.59c-.19,0-.38-.02-.58-.02h0Z"/>
          <path id="path7702" class="st6" d="M130.05,198.23c-1.63,0-4.52.36-6.27,2.65-1.1,1.44-1.56,3.61-1.56,7.22v3.39c0,4.14.85,6.95,2.61,8.54,1.21,1.1,2.88,1.63,5.06,1.63.22,0,.44,0,.68-.02h0l10.73-.77h0c1.48-.12,2.59-.57,3.89-1.52l6.74-5.01.02-.02c.96-.77,1.51-1.78,1.48-2.82v-3.19c.05-1.11-.54-2.15-1.66-3.01h0l-6.95-5.12c-1.01-.8-2.15-1.24-3.44-1.36h0l-10.69-.58h0c-.13,0-.31,0-.48,0h-.16ZM130.07,198.77c.22,0,.42,0,.58.02l10.69.59h0c1.18.1,2.2.5,3.14,1.24h0l6.95,5.12c1.01.77,1.49,1.65,1.45,2.57h0v1.56c-.11-.17-.23-.33-.37-.48-.05-.06-.1-.1-.13-.14h0c-.18-.2-.39-.38-.62-.56h0l-6.95-5.12c-1.01-.8-2.15-1.25-3.44-1.35h0l-10.69-.59c-.15,0-.32,0-.5,0,.03,0,0,0-.08,0-.05,0-.04,0-.05,0-.15,0-.32,0-.5,0h0c-.06,0-.12,0-.2,0-.19,0-.39.03-.58.06h0s-.1,0-.18.02h0c-.21.03-.43.07-.66.11h0c-.06,0-.11.03-.15.03h0c-.22.05-.44.11-.68.18-.05,0-.08.02-.1.03h0c-.25.08-.5.18-.75.29h0s-.09.04-.12.05h-.03c-.24.13-.48.26-.72.41h0s-.06.05-.12.09h0c-.24.16-.47.33-.69.54h0s-.05.05-.1.09h0c-.23.22-.44.44-.65.71h0c-.15.21-.28.41-.41.64h0c-.05.08-.09.17-.12.25-.08.15-.15.31-.22.49-.04.1-.08.21-.12.31h0s-.03.09-.04.13c.15-2.31.58-3.86,1.36-4.88h0c1.6-2.09,4.3-2.43,5.83-2.43h-.02ZM130.02,202.16h.08c.21,0,.4,0,.55,0h0l10.69.59h0c1.18.1,2.2.51,3.14,1.24h0l6.95,5.12c.94.72,1.43,1.55,1.45,2.4h0c.03.84-.45,1.73-1.31,2.41l-6.73,4.99h0c-1.23.92-2.19,1.3-3.59,1.42l-10.68.77c-2.41.11-4.15-.37-5.36-1.47l-.03-.02c-1.61-1.46-2.41-4.1-2.41-8.12,0-3.53.45-5.59,1.44-6.9.2-.24.39-.45.6-.65h.02v-.03s.03-.02.06-.05c.21-.18.42-.36.65-.5h0s.07-.05.08-.05h.02l.02-.02c.23-.15.45-.28.69-.39h0s.04-.02.06-.03h.02c.77-.35,1.58-.55,2.31-.64h0c.46-.06.9-.09,1.26-.09h.01ZM152.95,209.96h0v.02h0v-.02Z"/>
          <path id="path1933" class="st6" d="M132.52,213.59c.06.86-.13,1.25-1,.53-.86-.72-2.25-1.97-2.25-1.97-.47-.33-.47-.66,0-.99.46-.32,2.11-1.84,2.11-1.84.47-.46.93-.19.93.47s.2,3.79.2,3.79"/>
        </g>
        <g id="Down">
          <path id="path1883" class="st1" d="M159.43,213.57c-1.11,0-2.28.38-3.32,1.23l-6.51,5.46c-.82.65-1.5,1.47-1.65,2.59l-.74,8.41c0,.17-.03.36-.03.55v3.33c0-.17,0-.34.03-.49,0,.16-.03.32-.03.49,0,1.54.67,3.53,3.24,4.75,1.86.88,4.78,1.17,8.97,1.17,9.73,0,12.58-2.28,12.58-5.79,0-.14,0-.28,0-.41,0-.05,0-.09,0-.14l-.97-8.41c-.16-1.07-.6-1.89-1.87-2.95l-6.35-5.3,6.35,5.29c1.27,1.06,1.71,1.88,1.87,2.95l.97,8.41v.14c0,.14.02.27.02.41v-3.37c0-.19,0-.38-.03-.58l-.97-8.41c-.16-1.06-.6-1.88-1.87-2.94l-6.35-5.29c-.88-.69-2.07-1.12-3.33-1.11h0ZM162.09,217.62c.06.03.12.06.18.1-.06-.03-.11-.07-.18-.1ZM156.75,217.73c-.07.04-.15.09-.22.14.07-.05.14-.1.22-.14ZM149.01,224.18h0c-.52.53-.91,1.17-1.05,1.96.13-.79.52-1.42,1.05-1.96h0Z"/>
          <path id="path7690" class="st6" d="M159.47,213.29c-1.17,0-2.42.38-3.55,1.3h0l-6.49,5.46h0c-1.02.81-1.61,1.72-1.75,2.77h0l-.75,8.42h0c0,.19-.03.37-.03.57v3.33h0c0,1.27.48,3.61,3.39,4.99,1.8.85,4.52,1.21,9.09,1.21s7.6-.45,9.72-1.44,3.15-2.54,3.15-4.63v-3.37c0-.19,0-.39-.03-.6h0l-.98-8.42h0c-.16-1.2-.74-2.09-1.96-3.12h0l-6.37-5.3h0c-.89-.7-2.12-1.18-3.45-1.18h.01ZM159.47,213.84h.02c1.19,0,2.29.43,3.08,1.05h0l6.36,5.29c1.15.97,1.62,1.68,1.77,2.76l.27,2.3c-.3-.73-.83-1.39-1.67-2.1h0l-6.37-5.29h0c-.21-.17-.44-.32-.69-.46-.03-.02-.06-.04-.09-.05-.24-.13-.49-.24-.76-.34h-.03s-.03-.02-.03-.02c-.27-.09-.55-.16-.82-.22h-.03s0,0-.08,0c-.28-.04-.57-.07-.85-.08h-.12c-.25,0-.49.03-.76.07-.06,0-.11.02-.14.03-.26.04-.52.11-.78.2-.04,0-.06.02-.08.03s-.03,0-.03.02c-.27.09-.54.22-.81.36-.04.02-.05.03-.05.03h0c-.29.17-.56.35-.83.57h0l-6.5,5.48c-.64.5-1.08,1.04-1.38,1.63l.2-2.19c.12-.9.61-1.67,1.54-2.41h0l6.5-5.48c1.02-.82,2.13-1.16,3.18-1.16h-.01ZM159.4,217.23h-.02.15c.26,0,.51.02.78.06.03,0,.06,0,.06.02h.04c.26.04.5.11.74.2h.08c.26.1.48.19.7.31h0l.04.02c.23.13.44.27.64.42h0l6.36,5.29c1.15.97,1.62,1.7,1.77,2.76l.97,8.41h0c.03.19.03.36.03.54,0,1.29-.32,2.63-2.01,3.69-1.69,1.06-4.77,1.82-10.27,1.82h-.02c-4.52,0-7.16-.35-8.84-1.14h0c-2.69-1.28-3.08-3.37-3.08-4.51,0-.16,0-.3.03-.46h0l.75-8.4c.12-.9.61-1.68,1.54-2.42h0l6.5-5.46h0c.25-.2.49-.36.75-.51l.03-.02.02-.02h0c.24-.13.48-.24.72-.33.03,0,.06-.02.09-.03h0c.23-.09.47-.14.71-.18h0s.06,0,.11-.02c.22-.03.44-.05.65-.05h-.03ZM161.89,217.81h0Z"/>
          <path id="path1939" class="st6" d="M156.79,232.25c-.6,0-.73.46-.2.79.53.32,2.25,1.7,2.25,1.7.4.39.6.52,1.27.07l2.25-1.77c.47-.33.4-.72-.46-.79-.87-.07-5.11,0-5.11,0"/>
        </g>
        <g id="Right1">
          <path id="path1885" class="st1" d="M189.17,198.57c-.22,0-.44,0-.67.02l-10.69.77c-1.35.11-2.39.47-3.74,1.47l-6.73,4.99c-.82.66-1.36,1.51-1.41,2.45v3.44c0-.08,0-.15.02-.23,0-.09.03-.18.05-.27-.02.09-.04.18-.05.27s-.02.18-.02.28v-.05.14c.03.87.49,1.78,1.57,2.59l6.95,5.12c.81.65,1.87,1.18,3.28,1.29l10.69.59c1.99.11,4.94-.28,6.65-2.53,1.12-1.47,1.5-3.76,1.5-7.05v-3.39c0-7.68-2.92-9.91-7.4-9.9h0ZM166.87,209.62s-.09.1-.13.15c.04-.05.09-.1.13-.15ZM166.49,210.08c-.04.05-.07.11-.11.16.03-.06.07-.11.11-.16ZM166.34,210.33c-.06.11-.12.22-.17.34.05-.11.11-.23.17-.34Z"/>
          <path id="path7678" class="st6" d="M189.06,198.3c-.19,0-.38,0-.58,0h0l-10.69.77h0c-1.48.12-2.59.57-3.89,1.52l-6.73,5h0c-.86.68-1.38,1.56-1.48,2.48h-.03v3.76h0c.03,1.04.63,2.01,1.68,2.81h0l6.95,5.12c1.01.8,2.15,1.25,3.44,1.36h0l10.68.58c.17,0,.37.02.59.02,1.63,0,4.54-.36,6.31-2.65h0c1.09-1.44,1.54-3.61,1.54-7.22v-3.39c0-4.14-.84-6.95-2.6-8.55h0c-1.24-1.11-2.94-1.63-5.18-1.61h0ZM189.01,198.84h.17c2.05,0,3.58.49,4.68,1.47,1.35,1.21,2.1,3.3,2.32,6.28,0-.03-.03-.06-.03-.09h0c-.08-.26-.17-.51-.26-.73h0c-.03-.07-.06-.14-.09-.21h0c-.12-.28-.25-.54-.4-.79h0s-.04-.07-.05-.09h0c-.13-.21-.26-.42-.41-.61h0c-.04-.06-.08-.11-.13-.17h0c-.17-.2-.35-.41-.55-.59h0c-1.34-1.21-3.24-1.72-5.76-1.61h0l-10.69.77h0c-1.48.14-2.59.57-3.88,1.52h0l-6.73,5.01h0c-.22.18-.41.37-.59.57h0s-.06.06-.09.1c-.11.12-.19.26-.28.4v-1.79c.04-.8.5-1.6,1.3-2.24h0l6.73-4.99h0c1.23-.92,2.19-1.3,3.59-1.42l10.68-.77c.17,0,.34,0,.51,0h-.04ZM189.17,202.23h0c2.07,0,3.61.48,4.7,1.48h0c1.62,1.46,2.43,4.11,2.43,8.15,0,3.52-.44,5.55-1.42,6.87l-.02.02c-1.83,2.39-5.1,2.5-6.42,2.42l-10.69-.59h0c-1.18-.1-2.2-.5-3.14-1.23h0l-6.95-5.12h0c-.94-.71-1.43-1.54-1.45-2.38,0-.14.03-.28.05-.43.03-.11.03-.2.05-.25h0v-.02c.03-.11.08-.24.14-.38.05-.1.07-.18.1-.24.07-.12.17-.25.27-.39.08-.08.11-.15.15-.2h0c.16-.18.34-.36.55-.52h0l6.73-4.99h0c1.23-.92,2.19-1.31,3.59-1.43l10.68-.76c.22,0,.44-.02.66-.02h0Z"/>
          <path id="path1937" class="st6" d="M187.46,209.82c-.06-.86.39-1.06.99-.59.6.46,2.19,1.96,2.19,1.96.33.27.72.47.06.99-.67.52-2.06,1.77-2.06,1.77-.33.32-.86.25-.93-.2-.06-.46-.25-3.93-.25-3.93"/>
        </g>
      </g>
    </g>
  </g>
  <g id="Callouts">
    <polyline id="callout_L2" class="st10" points="2.4 3.17 117.91 3.17 171.1 93.49"/>
    <polyline id="callout_L1" class="st10" points="2.4 63.71 129.99 63.71 161.13 118.36"/>
    <polyline id="callout_Create" class="st10" points="2.4 124.24 110.86 124.24 134 163 186.65 162.89"/>
    <line id="callout_DPad_Up" class="st10" x1="2.4" y1="184.78" x2="146.83" y2="184.78"/>
    <polyline id="callout_DPad_Left" class="st10" points="2.4 366.39 106.55 366.39 189.13 221.85"/>
    <polyline id="callout_DPad_Right" class="st10" points="2.4 245.32 126.31 245.32 138.09 221.25"/>
    <polyline id="callout_DPad_Down" class="st10" points="2.4 305.86 124.63 305.86 162.42 241.39"/>
    <polyline id="callout_Left_Thumb_Stick" class="st10" points="2.4 426.93 143.77 426.93 230.4 275.47"/>
    <polyline id="callout_R2" class="st10" points="427.95 93.94 480.78 3.17 595.34 3.17"/>
    <polyline id="callout_R1" class="st10" points="437.92 117.79 468.92 63.71 595.34 63.71"/>
    <polyline id="callout_Start" class="st10" points="411.62 162.89 464.28 162.89 487.5 124.24 595.34 124.24"/>
    <line id="callout_Triangle" class="st10" x1="453.97" y1="184.78" x2="595.34" y2="184.78"/>
    <polyline id="callout_Square" class="st10" points="369.45 275.47 453.97 426.93 595.34 426.93"/>
    <polyline id="callout_Circle" class="st10" points="473.71 222.09 486.88 245.32 595.34 245.32"/>
    <polyline id="callout_Cross" class="st10" points="438.56 248.84 472.22 305.86 595.34 305.86"/>
    <polyline id="callout_Right_Thumb_Stick" class="st10" points="405.35 223.46 485.42 366.39 595.34 366.39"/>
  </g>
</svg>
